<svg width="225" height="153" viewBox="0 0 225 153" fill="none" xmlns="http://www.w3.org/2000/svg">
<rect x="8.99023" y="0.5" width="207.065" height="151.816" fill="white" stroke="#707379"/>
<rect x="17.252" y="9.96002" width="191.3" height="25.7837" fill="#A3A5AA" fill-opacity="0.7"/>
<path d="M61.292 31.688L61.5654 27.6958H60.834V19.2876H55.9189L55.6455 23.3618C55.6364 23.5942 55.625 23.8153 55.6113 24.0249C55.6022 24.2345 55.5885 24.4328 55.5703 24.6196C55.5339 25.007 55.4906 25.3511 55.4404 25.6519C55.3903 25.9526 55.3288 26.2147 55.2559 26.438C55.151 26.7752 55.0212 27.0418 54.8662 27.2378C54.7113 27.4338 54.529 27.5864 54.3193 27.6958H53.9502L54.251 31.688H55.8711V29.2407H59.6377V31.688H61.292ZM57.5732 23.3618L57.7373 20.8462H58.9199V27.6958H56.7666C56.876 27.4725 56.9762 27.2218 57.0674 26.9438C57.1585 26.6613 57.2383 26.3423 57.3066 25.9868C57.3431 25.7909 57.3773 25.5812 57.4092 25.3579C57.4411 25.1346 57.4684 24.8999 57.4912 24.6538C57.5094 24.4578 57.5254 24.2528 57.5391 24.0386C57.5527 23.8244 57.5641 23.5988 57.5732 23.3618ZM62.7549 25.4741V25.6177C62.7549 26.16 62.8324 26.6613 62.9873 27.1216C63.1423 27.5773 63.3701 27.9738 63.6709 28.311C63.9671 28.6483 64.3317 28.9126 64.7646 29.104C65.2021 29.2909 65.6989 29.3843 66.2549 29.3843C66.8063 29.3843 67.2985 29.2909 67.7314 29.104C68.1644 28.9126 68.529 28.6483 68.8252 28.311C69.1214 27.9738 69.347 27.5773 69.502 27.1216C69.6569 26.6613 69.7344 26.16 69.7344 25.6177V25.4741C69.7344 24.9364 69.6569 24.4396 69.502 23.9839C69.347 23.5236 69.1214 23.1248 68.8252 22.7876C68.5244 22.4504 68.1576 22.186 67.7246 21.9946C67.2917 21.8032 66.7972 21.7075 66.2412 21.7075C65.6852 21.7075 65.1908 21.8032 64.7578 21.9946C64.3294 22.186 63.9671 22.4504 63.6709 22.7876C63.3701 23.1248 63.1423 23.5236 62.9873 23.9839C62.8324 24.4396 62.7549 24.9364 62.7549 25.4741ZM64.6553 25.6177V25.4741C64.6553 25.1733 64.6849 24.8885 64.7441 24.6196C64.8034 24.3507 64.8968 24.1138 65.0244 23.9087C65.152 23.7036 65.3161 23.5418 65.5166 23.4233C65.7171 23.3049 65.9587 23.2456 66.2412 23.2456C66.5283 23.2456 66.7721 23.3049 66.9727 23.4233C67.1732 23.5418 67.3372 23.7036 67.4648 23.9087C67.5879 24.1138 67.679 24.3507 67.7383 24.6196C67.7975 24.8885 67.8271 25.1733 67.8271 25.4741V25.6177C67.8271 25.9276 67.7975 26.2192 67.7383 26.4927C67.679 26.7616 67.5879 26.9963 67.4648 27.1968C67.3372 27.4019 67.1732 27.5636 66.9727 27.6821C66.7721 27.8006 66.5329 27.8599 66.2549 27.8599C65.9678 27.8599 65.7217 27.8006 65.5166 27.6821C65.3161 27.5636 65.152 27.4019 65.0244 27.1968C64.8968 26.9963 64.8034 26.7616 64.7441 26.4927C64.6849 26.2192 64.6553 25.9276 64.6553 25.6177ZM71.4502 32.0845H73.3506V28.5981C73.4372 28.6938 73.5283 28.7804 73.624 28.8579C73.7197 28.9354 73.82 29.006 73.9248 29.0698C74.1025 29.1701 74.2939 29.2453 74.499 29.2954C74.7087 29.3501 74.9365 29.3774 75.1826 29.3774C75.6475 29.3774 76.0599 29.2817 76.4199 29.0903C76.7799 28.8989 77.083 28.6346 77.3291 28.2974C77.5706 27.9647 77.7529 27.5682 77.876 27.1079C78.0036 26.6476 78.0674 26.1486 78.0674 25.6108V25.4673C78.0674 24.9067 78.0036 24.3963 77.876 23.936C77.7529 23.4712 77.5684 23.0724 77.3223 22.7397C77.0762 22.4116 76.7731 22.1587 76.4131 21.981C76.0531 21.7987 75.6383 21.7075 75.1689 21.7075C74.9411 21.7075 74.7269 21.7326 74.5264 21.7827C74.3304 21.8283 74.1504 21.8944 73.9863 21.981C73.8496 22.0539 73.722 22.1405 73.6035 22.2407C73.485 22.3364 73.3757 22.4458 73.2754 22.5688L73.207 21.8442H71.4502V32.0845ZM76.167 25.4673V25.6108C76.167 25.9162 76.1396 26.2056 76.085 26.479C76.0303 26.7479 75.9437 26.9849 75.8252 27.1899C75.7067 27.395 75.5518 27.5568 75.3604 27.6753C75.1735 27.7938 74.9456 27.853 74.6768 27.853C74.5081 27.853 74.3555 27.8371 74.2188 27.8052C74.082 27.7687 73.9613 27.7186 73.8564 27.6548C73.7471 27.5864 73.6491 27.5044 73.5625 27.4087C73.4805 27.313 73.4098 27.2059 73.3506 27.0874V23.9976C73.4144 23.87 73.4896 23.7583 73.5762 23.6626C73.6673 23.5669 73.7721 23.4871 73.8906 23.4233C73.9954 23.3687 74.1117 23.3276 74.2393 23.3003C74.3669 23.2684 74.5081 23.2524 74.6631 23.2524C74.932 23.2524 75.1598 23.3094 75.3467 23.4233C75.5381 23.5373 75.6953 23.6922 75.8184 23.8882C75.9368 24.0887 76.0234 24.3257 76.0781 24.5991C76.1374 24.868 76.167 25.1574 76.167 25.4673ZM79.5713 25.4741V25.6177C79.5713 26.16 79.6488 26.6613 79.8037 27.1216C79.9587 27.5773 80.1865 27.9738 80.4873 28.311C80.7835 28.6483 81.1481 28.9126 81.5811 29.104C82.0186 29.2909 82.5153 29.3843 83.0713 29.3843C83.6227 29.3843 84.1149 29.2909 84.5479 29.104C84.9808 28.9126 85.3454 28.6483 85.6416 28.311C85.9378 27.9738 86.1634 27.5773 86.3184 27.1216C86.4733 26.6613 86.5508 26.16 86.5508 25.6177V25.4741C86.5508 24.9364 86.4733 24.4396 86.3184 23.9839C86.1634 23.5236 85.9378 23.1248 85.6416 22.7876C85.3408 22.4504 84.974 22.186 84.541 21.9946C84.1081 21.8032 83.6136 21.7075 83.0576 21.7075C82.5016 21.7075 82.0072 21.8032 81.5742 21.9946C81.1458 22.186 80.7835 22.4504 80.4873 22.7876C80.1865 23.1248 79.9587 23.5236 79.8037 23.9839C79.6488 24.4396 79.5713 24.9364 79.5713 25.4741ZM81.4717 25.6177V25.4741C81.4717 25.1733 81.5013 24.8885 81.5605 24.6196C81.6198 24.3507 81.7132 24.1138 81.8408 23.9087C81.9684 23.7036 82.1325 23.5418 82.333 23.4233C82.5335 23.3049 82.7751 23.2456 83.0576 23.2456C83.3447 23.2456 83.5885 23.3049 83.7891 23.4233C83.9896 23.5418 84.1536 23.7036 84.2812 23.9087C84.4043 24.1138 84.4954 24.3507 84.5547 24.6196C84.6139 24.8885 84.6436 25.1733 84.6436 25.4741V25.6177C84.6436 25.9276 84.6139 26.2192 84.5547 26.4927C84.4954 26.7616 84.4043 26.9963 84.2812 27.1968C84.1536 27.4019 83.9896 27.5636 83.7891 27.6821C83.5885 27.8006 83.3493 27.8599 83.0713 27.8599C82.7842 27.8599 82.5381 27.8006 82.333 27.6821C82.1325 27.5636 81.9684 27.4019 81.8408 27.1968C81.7132 26.9963 81.6198 26.7616 81.5605 26.4927C81.5013 26.2192 81.4717 25.9276 81.4717 25.6177ZM92.6143 26.4448L93.4756 29.2407H95.3965L93.8447 25.269L95.3145 21.8442H93.3936L92.5459 24.6401H92.252V21.8442H90.6045V24.6401H90.3242L89.4766 21.8442H87.5625L89.0459 25.3101L87.5078 29.2407H89.3945L90.249 26.4448H90.6045V29.2407H92.252V26.4448H92.6143ZM103.087 29.2407V21.8442H101.18V24.8384H98.418V21.8442H96.5107V29.2407H98.418V26.3696H101.18V29.2407H103.087ZM109.677 29.2407H111.604V29.1245C111.509 28.9377 111.436 28.7144 111.386 28.4546C111.336 28.1948 111.311 27.8667 111.311 27.4702V24.2983C111.311 23.87 111.231 23.494 111.071 23.1704C110.912 22.8423 110.691 22.5711 110.408 22.3569C110.126 22.1427 109.791 21.981 109.403 21.8716C109.021 21.7622 108.606 21.7075 108.159 21.7075C107.662 21.7075 107.22 21.7713 106.833 21.8989C106.45 22.022 106.127 22.1906 105.862 22.4048C105.593 22.619 105.388 22.8674 105.247 23.1499C105.11 23.4325 105.042 23.731 105.042 24.0454H106.942C106.942 23.9132 106.961 23.7925 106.997 23.6831C107.038 23.5737 107.1 23.4803 107.182 23.4028C107.273 23.3162 107.391 23.2502 107.537 23.2046C107.683 23.1545 107.856 23.1294 108.057 23.1294C108.285 23.1294 108.483 23.159 108.651 23.2183C108.825 23.2729 108.968 23.3527 109.082 23.4575C109.191 23.5578 109.273 23.6785 109.328 23.8198C109.383 23.9565 109.41 24.1115 109.41 24.2847V24.7222H108.351C107.804 24.7222 107.318 24.7723 106.895 24.8726C106.475 24.9683 106.122 25.1095 105.835 25.2964C105.516 25.5015 105.277 25.7635 105.117 26.0825C104.958 26.397 104.878 26.7593 104.878 27.1694C104.878 27.4884 104.942 27.7847 105.069 28.0581C105.197 28.327 105.375 28.5594 105.603 28.7554C105.83 28.9513 106.102 29.104 106.416 29.2134C106.735 29.3228 107.084 29.3774 107.462 29.3774C107.694 29.3774 107.911 29.3547 108.111 29.3091C108.312 29.2681 108.496 29.2088 108.665 29.1313C108.829 29.0584 108.979 28.9718 109.116 28.8716C109.253 28.7713 109.374 28.6642 109.479 28.5503C109.501 28.6825 109.529 28.8078 109.561 28.9263C109.592 29.0448 109.631 29.1496 109.677 29.2407ZM107.865 27.9077C107.688 27.9077 107.53 27.8872 107.394 27.8462C107.261 27.8006 107.15 27.7414 107.059 27.6685C106.967 27.591 106.897 27.4976 106.847 27.3882C106.801 27.2743 106.778 27.1512 106.778 27.019C106.778 26.8504 106.81 26.6955 106.874 26.5542C106.938 26.4084 107.036 26.283 107.168 26.1782C107.3 26.078 107.471 26.0005 107.681 25.9458C107.89 25.8866 108.143 25.8569 108.439 25.8569H109.41V27.1284C109.355 27.2241 109.28 27.3198 109.185 27.4155C109.089 27.5067 108.975 27.5887 108.843 27.6616C108.711 27.7345 108.562 27.7938 108.398 27.8394C108.234 27.8849 108.057 27.9077 107.865 27.9077ZM120.054 21.8442H116.403C115.916 21.8442 115.478 21.9058 115.091 22.0288C114.708 22.1519 114.382 22.3228 114.113 22.5415C113.844 22.7603 113.637 23.02 113.491 23.3208C113.35 23.617 113.279 23.9429 113.279 24.2983C113.279 24.7495 113.402 25.1528 113.648 25.5083C113.895 25.8638 114.234 26.1372 114.667 26.3286L113.026 29.2407H114.968L116.431 26.6499H118.153V29.2407H120.054V21.8442ZM115.18 24.353C115.18 24.2345 115.205 24.1183 115.255 24.0044C115.305 23.8859 115.38 23.7788 115.48 23.6831C115.581 23.592 115.706 23.5168 115.856 23.4575C116.011 23.3983 116.194 23.3687 116.403 23.3687H118.153V25.3101H116.349C116.148 25.3101 115.975 25.2827 115.829 25.228C115.683 25.1688 115.562 25.0936 115.467 25.0024C115.371 24.9113 115.298 24.8088 115.248 24.6948C115.202 24.5809 115.18 24.467 115.18 24.353ZM133.24 26.4722L135.195 29.2407H137.711L134.778 25.4058L137.492 21.8442H135.1L133.11 24.6743H132.126V21.8442H130.226V29.2407H132.126V26.4722H133.24ZM143.31 29.2407H145.237V29.1245C145.142 28.9377 145.069 28.7144 145.019 28.4546C144.968 28.1948 144.943 27.8667 144.943 27.4702V24.2983C144.943 23.87 144.864 23.494 144.704 23.1704C144.545 22.8423 144.324 22.5711 144.041 22.3569C143.758 22.1427 143.424 21.981 143.036 21.8716C142.653 21.7622 142.239 21.7075 141.792 21.7075C141.295 21.7075 140.853 21.7713 140.466 21.8989C140.083 22.022 139.759 22.1906 139.495 22.4048C139.226 22.619 139.021 22.8674 138.88 23.1499C138.743 23.4325 138.675 23.731 138.675 24.0454H140.575C140.575 23.9132 140.593 23.7925 140.63 23.6831C140.671 23.5737 140.732 23.4803 140.814 23.4028C140.906 23.3162 141.024 23.2502 141.17 23.2046C141.316 23.1545 141.489 23.1294 141.689 23.1294C141.917 23.1294 142.116 23.159 142.284 23.2183C142.457 23.2729 142.601 23.3527 142.715 23.4575C142.824 23.5578 142.906 23.6785 142.961 23.8198C143.016 23.9565 143.043 24.1115 143.043 24.2847V24.7222H141.983C141.437 24.7222 140.951 24.7723 140.527 24.8726C140.108 24.9683 139.755 25.1095 139.468 25.2964C139.149 25.5015 138.91 25.7635 138.75 26.0825C138.59 26.397 138.511 26.7593 138.511 27.1694C138.511 27.4884 138.575 27.7847 138.702 28.0581C138.83 28.327 139.007 28.5594 139.235 28.7554C139.463 28.9513 139.734 29.104 140.049 29.2134C140.368 29.3228 140.716 29.3774 141.095 29.3774C141.327 29.3774 141.544 29.3547 141.744 29.3091C141.945 29.2681 142.129 29.2088 142.298 29.1313C142.462 29.0584 142.612 28.9718 142.749 28.8716C142.886 28.7713 143.007 28.6642 143.111 28.5503C143.134 28.6825 143.161 28.8078 143.193 28.9263C143.225 29.0448 143.264 29.1496 143.31 29.2407ZM141.498 27.9077C141.32 27.9077 141.163 27.8872 141.026 27.8462C140.894 27.8006 140.783 27.7414 140.691 27.6685C140.6 27.591 140.53 27.4976 140.479 27.3882C140.434 27.2743 140.411 27.1512 140.411 27.019C140.411 26.8504 140.443 26.6955 140.507 26.5542C140.571 26.4084 140.669 26.283 140.801 26.1782C140.933 26.078 141.104 26.0005 141.313 25.9458C141.523 25.8866 141.776 25.8569 142.072 25.8569H143.043V27.1284C142.988 27.2241 142.913 27.3198 142.817 27.4155C142.722 27.5067 142.608 27.5887 142.476 27.6616C142.343 27.7345 142.195 27.7938 142.031 27.8394C141.867 27.8849 141.689 27.9077 141.498 27.9077ZM147.124 32.0845H149.024V28.5981C149.111 28.6938 149.202 28.7804 149.298 28.8579C149.394 28.9354 149.494 29.006 149.599 29.0698C149.776 29.1701 149.968 29.2453 150.173 29.2954C150.382 29.3501 150.61 29.3774 150.856 29.3774C151.321 29.3774 151.734 29.2817 152.094 29.0903C152.454 28.8989 152.757 28.6346 153.003 28.2974C153.244 27.9647 153.427 27.5682 153.55 27.1079C153.677 26.6476 153.741 26.1486 153.741 25.6108V25.4673C153.741 24.9067 153.677 24.3963 153.55 23.936C153.427 23.4712 153.242 23.0724 152.996 22.7397C152.75 22.4116 152.447 22.1587 152.087 21.981C151.727 21.7987 151.312 21.7075 150.843 21.7075C150.615 21.7075 150.401 21.7326 150.2 21.7827C150.004 21.8283 149.824 21.8944 149.66 21.981C149.523 22.0539 149.396 22.1405 149.277 22.2407C149.159 22.3364 149.049 22.4458 148.949 22.5688L148.881 21.8442H147.124V32.0845ZM151.841 25.4673V25.6108C151.841 25.9162 151.813 26.2056 151.759 26.479C151.704 26.7479 151.618 26.9849 151.499 27.1899C151.381 27.395 151.226 27.5568 151.034 27.6753C150.847 27.7938 150.619 27.853 150.351 27.853C150.182 27.853 150.029 27.8371 149.893 27.8052C149.756 27.7687 149.635 27.7186 149.53 27.6548C149.421 27.5864 149.323 27.5044 149.236 27.4087C149.154 27.313 149.084 27.2059 149.024 27.0874V23.9976C149.088 23.87 149.163 23.7583 149.25 23.6626C149.341 23.5669 149.446 23.4871 149.564 23.4233C149.669 23.3687 149.785 23.3276 149.913 23.3003C150.041 23.2684 150.182 23.2524 150.337 23.2524C150.606 23.2524 150.834 23.3094 151.021 23.4233C151.212 23.5373 151.369 23.6922 151.492 23.8882C151.611 24.0887 151.697 24.3257 151.752 24.5991C151.811 24.868 151.841 25.1574 151.841 25.4673ZM162.758 23.3687V21.8442H155.177V23.3687H158V29.2407H159.907V23.3687H162.758ZM168.534 29.2407H170.462V29.1245C170.366 28.9377 170.293 28.7144 170.243 28.4546C170.193 28.1948 170.168 27.8667 170.168 27.4702V24.2983C170.168 23.87 170.088 23.494 169.929 23.1704C169.769 22.8423 169.548 22.5711 169.266 22.3569C168.983 22.1427 168.648 21.981 168.261 21.8716C167.878 21.7622 167.463 21.7075 167.017 21.7075C166.52 21.7075 166.078 21.7713 165.69 21.8989C165.308 22.022 164.984 22.1906 164.72 22.4048C164.451 22.619 164.246 22.8674 164.104 23.1499C163.968 23.4325 163.899 23.731 163.899 24.0454H165.8C165.8 23.9132 165.818 23.7925 165.854 23.6831C165.896 23.5737 165.957 23.4803 166.039 23.4028C166.13 23.3162 166.249 23.2502 166.395 23.2046C166.54 23.1545 166.714 23.1294 166.914 23.1294C167.142 23.1294 167.34 23.159 167.509 23.2183C167.682 23.2729 167.826 23.3527 167.939 23.4575C168.049 23.5578 168.131 23.6785 168.186 23.8198C168.24 23.9565 168.268 24.1115 168.268 24.2847V24.7222H167.208C166.661 24.7222 166.176 24.7723 165.752 24.8726C165.333 24.9683 164.979 25.1095 164.692 25.2964C164.373 25.5015 164.134 25.7635 163.975 26.0825C163.815 26.397 163.735 26.7593 163.735 27.1694C163.735 27.4884 163.799 27.7847 163.927 28.0581C164.054 28.327 164.232 28.5594 164.46 28.7554C164.688 28.9513 164.959 29.104 165.273 29.2134C165.592 29.3228 165.941 29.3774 166.319 29.3774C166.552 29.3774 166.768 29.3547 166.969 29.3091C167.169 29.2681 167.354 29.2088 167.522 29.1313C167.687 29.0584 167.837 28.9718 167.974 28.8716C168.11 28.7713 168.231 28.6642 168.336 28.5503C168.359 28.6825 168.386 28.8078 168.418 28.9263C168.45 29.0448 168.489 29.1496 168.534 29.2407ZM166.723 27.9077C166.545 27.9077 166.388 27.8872 166.251 27.8462C166.119 27.8006 166.007 27.7414 165.916 27.6685C165.825 27.591 165.754 27.4976 165.704 27.3882C165.659 27.2743 165.636 27.1512 165.636 27.019C165.636 26.8504 165.668 26.6955 165.731 26.5542C165.795 26.4084 165.893 26.283 166.025 26.1782C166.158 26.078 166.328 26.0005 166.538 25.9458C166.748 25.8866 167.001 25.8569 167.297 25.8569H168.268V27.1284C168.213 27.2241 168.138 27.3198 168.042 27.4155C167.946 27.5067 167.832 27.5887 167.7 27.6616C167.568 27.7345 167.42 27.7938 167.256 27.8394C167.092 27.8849 166.914 27.9077 166.723 27.9077Z" fill="white"/>
<rect x="72.7598" y="52.9329" width="64.4273" height="6.87565" fill="#1969E8"/>
<rect x="137.188" y="63.2463" width="50.5507" height="6.87565" fill="#1969E8"/>
<rect x="72.7598" y="80.4353" width="135.793" height="6.87565" fill="#1969E8"/>
<rect x="72.7598" y="94.1866" width="114.978" height="6.87565" fill="#1969E8"/>
<rect x="137.188" y="111.376" width="71.3656" height="6.87565" fill="#1969E8"/>
<rect x="72.7598" y="121.689" width="64.4273" height="6.87565" fill="#1969E8"/>
<line x1="17.252" y1="55.8706" x2="66.8114" y2="55.8706" stroke="#929292"/>
<line x1="17.252" y1="69.6218" x2="66.8114" y2="69.6218" stroke="#929292"/>
<line x1="17.252" y1="83.3733" x2="66.8114" y2="83.3733" stroke="#929292"/>
<line x1="17.252" y1="97.1246" x2="66.8114" y2="97.1246" stroke="#929292"/>
<line x1="17.252" y1="110.876" x2="66.8114" y2="110.876" stroke="#929292"/>
<line x1="17.252" y1="124.627" x2="66.8114" y2="124.627" stroke="#929292"/>
</svg>
