<svg width="384" height="260" viewBox="0 0 384 260" fill="none" xmlns="http://www.w3.org/2000/svg">
<rect x="15.5" y="0.5" width="353" height="259" fill="white" stroke="#707379"/>
<rect x="29.9102" y="16.9459" width="325.476" height="43.8682" fill="#A3A5AA" fill-opacity="0.7"/>
<path d="M137.098 44.5526L137.391 40.2752H136.607V31.2664H131.341L131.048 35.6317C131.038 35.8807 131.026 36.1175 131.011 36.3421C131.002 36.5667 130.987 36.7791 130.967 36.9793C130.928 37.3943 130.882 37.763 130.828 38.0853C130.775 38.4075 130.709 38.6883 130.631 38.9276C130.518 39.2889 130.379 39.5745 130.213 39.7845C130.047 39.9944 129.852 40.158 129.627 40.2752H129.232L129.554 44.5526H131.29V41.9305H135.325V44.5526H137.098ZM133.113 35.6317L133.289 32.9363H134.556V40.2752H132.249C132.366 40.0359 132.474 39.7674 132.571 39.4695C132.669 39.1668 132.755 38.825 132.828 38.4442C132.867 38.2342 132.904 38.0096 132.938 37.7703C132.972 37.5311 133.001 37.2796 133.026 37.0159C133.045 36.806 133.062 36.5862 133.077 36.3568C133.092 36.1273 133.104 35.8856 133.113 35.6317ZM138.665 37.8948V38.0486C138.665 38.6297 138.748 39.1668 138.914 39.66C139.08 40.1483 139.324 40.5731 139.647 40.9344C139.964 41.2957 140.355 41.5789 140.819 41.784C141.287 41.9842 141.82 42.0843 142.415 42.0843C143.006 42.0843 143.533 41.9842 143.997 41.784C144.461 41.5789 144.852 41.2957 145.169 40.9344C145.487 40.5731 145.728 40.1483 145.894 39.66C146.06 39.1668 146.143 38.6297 146.143 38.0486V37.8948C146.143 37.3187 146.06 36.7864 145.894 36.2982C145.728 35.805 145.487 35.3777 145.169 35.0164C144.847 34.6551 144.454 34.3719 143.99 34.1668C143.526 33.9617 142.996 33.8592 142.401 33.8592C141.805 33.8592 141.275 33.9617 140.811 34.1668C140.352 34.3719 139.964 34.6551 139.647 35.0164C139.324 35.3777 139.08 35.805 138.914 36.2982C138.748 36.7864 138.665 37.3187 138.665 37.8948ZM140.701 38.0486V37.8948C140.701 37.5726 140.733 37.2674 140.797 36.9793C140.86 36.6912 140.96 36.4373 141.097 36.2176C141.234 35.9979 141.409 35.8245 141.624 35.6976C141.839 35.5706 142.098 35.5071 142.401 35.5071C142.708 35.5071 142.969 35.5706 143.184 35.6976C143.399 35.8245 143.575 35.9979 143.712 36.2176C143.843 36.4373 143.941 36.6912 144.005 36.9793C144.068 37.2674 144.1 37.5726 144.1 37.8948V38.0486C144.1 38.3807 144.068 38.6932 144.005 38.9861C143.941 39.2742 143.843 39.5257 143.712 39.7405C143.575 39.9603 143.399 40.1336 143.184 40.2606C142.969 40.3875 142.713 40.451 142.415 40.451C142.108 40.451 141.844 40.3875 141.624 40.2606C141.409 40.1336 141.234 39.9603 141.097 39.7405C140.96 39.5257 140.86 39.2742 140.797 38.9861C140.733 38.6932 140.701 38.3807 140.701 38.0486ZM147.982 44.9774H150.018V41.242C150.111 41.3445 150.208 41.4373 150.311 41.5203C150.413 41.6033 150.521 41.679 150.633 41.7474C150.823 41.8548 151.029 41.9354 151.248 41.9891C151.473 42.0477 151.717 42.077 151.981 42.077C152.479 42.077 152.921 41.9744 153.306 41.7693C153.692 41.5643 154.017 41.2811 154.28 40.9197C154.539 40.5633 154.735 40.1385 154.866 39.6453C155.003 39.1522 155.071 38.6175 155.071 38.0413V37.8875C155.071 37.2869 155.003 36.7401 154.866 36.2469C154.735 35.7488 154.537 35.3216 154.273 34.9651C154.009 34.6136 153.685 34.3426 153.299 34.1522C152.913 33.9568 152.469 33.8592 151.966 33.8592C151.722 33.8592 151.492 33.886 151.278 33.9398C151.068 33.9886 150.875 34.0594 150.699 34.1522C150.552 34.2303 150.416 34.3231 150.289 34.4305C150.162 34.533 150.045 34.6502 149.937 34.782L149.864 34.0057H147.982V44.9774ZM153.035 37.8875V38.0413C153.035 38.3685 153.006 38.6785 152.947 38.9715C152.889 39.2596 152.796 39.5135 152.669 39.7332C152.542 39.9529 152.376 40.1263 152.171 40.2532C151.971 40.3802 151.727 40.4437 151.439 40.4437C151.258 40.4437 151.094 40.4266 150.948 40.3924C150.801 40.3533 150.672 40.2996 150.56 40.2313C150.443 40.158 150.338 40.0701 150.245 39.9676C150.157 39.8651 150.081 39.7503 150.018 39.6234V36.3128C150.086 36.1761 150.167 36.0565 150.259 35.9539C150.357 35.8514 150.469 35.7659 150.596 35.6976C150.709 35.639 150.833 35.595 150.97 35.5657C151.107 35.5316 151.258 35.5145 151.424 35.5145C151.712 35.5145 151.956 35.5755 152.156 35.6976C152.362 35.8196 152.53 35.9857 152.662 36.1956C152.789 36.4105 152.882 36.6644 152.94 36.9573C153.004 37.2454 153.035 37.5555 153.035 37.8875ZM156.683 37.8948V38.0486C156.683 38.6297 156.766 39.1668 156.932 39.66C157.098 40.1483 157.342 40.5731 157.664 40.9344C157.982 41.2957 158.372 41.5789 158.836 41.784C159.305 41.9842 159.837 42.0843 160.433 42.0843C161.024 42.0843 161.551 41.9842 162.015 41.784C162.479 41.5789 162.869 41.2957 163.187 40.9344C163.504 40.5731 163.746 40.1483 163.912 39.66C164.078 39.1668 164.161 38.6297 164.161 38.0486V37.8948C164.161 37.3187 164.078 36.7864 163.912 36.2982C163.746 35.805 163.504 35.3777 163.187 35.0164C162.864 34.6551 162.471 34.3719 162.008 34.1668C161.544 33.9617 161.014 33.8592 160.418 33.8592C159.822 33.8592 159.293 33.9617 158.829 34.1668C158.37 34.3719 157.982 34.6551 157.664 35.0164C157.342 35.3777 157.098 35.805 156.932 36.2982C156.766 36.7864 156.683 37.3187 156.683 37.8948ZM158.719 38.0486V37.8948C158.719 37.5726 158.751 37.2674 158.814 36.9793C158.878 36.6912 158.978 36.4373 159.114 36.2176C159.251 35.9979 159.427 35.8245 159.642 35.6976C159.857 35.5706 160.115 35.5071 160.418 35.5071C160.726 35.5071 160.987 35.5706 161.202 35.6976C161.417 35.8245 161.592 35.9979 161.729 36.2176C161.861 36.4373 161.959 36.6912 162.022 36.9793C162.086 37.2674 162.117 37.5726 162.117 37.8948V38.0486C162.117 38.3807 162.086 38.6932 162.022 38.9861C161.959 39.2742 161.861 39.5257 161.729 39.7405C161.592 39.9603 161.417 40.1336 161.202 40.2606C160.987 40.3875 160.731 40.451 160.433 40.451C160.125 40.451 159.862 40.3875 159.642 40.2606C159.427 40.1336 159.251 39.9603 159.114 39.7405C158.978 39.5257 158.878 39.2742 158.814 38.9861C158.751 38.6932 158.719 38.3807 158.719 38.0486ZM170.657 38.9349L171.58 41.9305H173.638L171.976 37.6751L173.55 34.0057H171.492L170.584 37.0013H170.269V34.0057H168.504V37.0013H168.204L167.296 34.0057H165.245L166.834 37.7191L165.186 41.9305H167.208L168.123 38.9349H168.504V41.9305H170.269V38.9349H170.657ZM181.878 41.9305V34.0057H179.835V37.2137H176.876V34.0057H174.832V41.9305H176.876V38.8543H179.835V41.9305H181.878ZM188.939 41.9305H191.004V41.806C190.902 41.6058 190.823 41.3665 190.77 41.0882C190.716 40.8099 190.689 40.4583 190.689 40.0335V36.6351C190.689 36.1761 190.604 35.7733 190.433 35.4266C190.262 35.075 190.025 34.7845 189.722 34.555C189.42 34.3255 189.061 34.1522 188.646 34.035C188.236 33.9178 187.791 33.8592 187.313 33.8592C186.78 33.8592 186.307 33.9276 185.892 34.0643C185.482 34.1961 185.135 34.3768 184.852 34.6063C184.564 34.8358 184.344 35.1019 184.193 35.4046C184.046 35.7073 183.973 36.0272 183.973 36.3641H186.009C186.009 36.2225 186.029 36.0931 186.068 35.9759C186.112 35.8587 186.177 35.7586 186.265 35.6756C186.363 35.5828 186.49 35.512 186.646 35.4632C186.802 35.4095 186.988 35.3826 187.203 35.3826C187.447 35.3826 187.659 35.4144 187.84 35.4778C188.026 35.5364 188.179 35.6219 188.301 35.7342C188.419 35.8416 188.507 35.971 188.565 36.1224C188.624 36.2689 188.653 36.4349 188.653 36.6204V37.0892H187.518C186.932 37.0892 186.412 37.1429 185.958 37.2503C185.508 37.3528 185.13 37.5042 184.822 37.7044C184.481 37.9241 184.224 38.2049 184.053 38.5467C183.883 38.8836 183.797 39.2718 183.797 39.7112C183.797 40.053 183.865 40.3704 184.002 40.6634C184.139 40.9515 184.329 41.2005 184.573 41.4105C184.818 41.6204 185.108 41.784 185.445 41.9012C185.787 42.0184 186.16 42.077 186.566 42.077C186.815 42.077 187.047 42.0526 187.261 42.0037C187.476 41.9598 187.674 41.8963 187.855 41.8133C188.03 41.7352 188.192 41.6424 188.338 41.535C188.485 41.4276 188.614 41.3128 188.726 41.1907C188.751 41.3323 188.78 41.4666 188.814 41.5936C188.848 41.7205 188.89 41.8328 188.939 41.9305ZM186.998 40.5023C186.807 40.5023 186.639 40.4803 186.492 40.4363C186.351 40.3875 186.231 40.324 186.133 40.2459C186.036 40.1629 185.96 40.0628 185.906 39.9456C185.858 39.8235 185.833 39.6917 185.833 39.5501C185.833 39.3694 185.867 39.2034 185.936 39.0521C186.004 38.8958 186.109 38.7615 186.251 38.6492C186.392 38.5418 186.575 38.4588 186.8 38.4002C187.025 38.3367 187.296 38.305 187.613 38.305H188.653V39.6673C188.594 39.7698 188.514 39.8724 188.411 39.9749C188.309 40.0726 188.187 40.1605 188.045 40.2386C187.904 40.3167 187.745 40.3802 187.569 40.429C187.393 40.4778 187.203 40.5023 186.998 40.5023ZM200.057 34.0057H196.146C195.623 34.0057 195.154 34.0716 194.739 34.2034C194.329 34.3353 193.98 34.5184 193.692 34.7527C193.404 34.9871 193.182 35.2654 193.026 35.5877C192.874 35.9051 192.799 36.2542 192.799 36.6351C192.799 37.1185 192.93 37.5506 193.194 37.9315C193.458 38.3123 193.821 38.6053 194.285 38.8104L192.528 41.9305H194.608L196.175 39.1546H198.021V41.9305H200.057V34.0057ZM194.835 36.6937C194.835 36.5667 194.862 36.4422 194.915 36.3201C194.969 36.1932 195.05 36.0784 195.157 35.9759C195.264 35.8782 195.399 35.7977 195.56 35.7342C195.726 35.6707 195.921 35.639 196.146 35.639H198.021V37.7191H196.087C195.872 37.7191 195.687 37.6898 195.53 37.6312C195.374 37.5677 195.245 37.4871 195.142 37.3895C195.04 37.2918 194.962 37.1819 194.908 37.0599C194.859 36.9378 194.835 36.8157 194.835 36.6937ZM214.185 38.9642L216.28 41.9305H218.975L215.833 37.8216L218.741 34.0057H216.177L214.046 37.0379H212.991V34.0057H210.955V41.9305H212.991V38.9642H214.185ZM224.974 41.9305H227.039V41.806C226.937 41.6058 226.859 41.3665 226.805 41.0882C226.751 40.8099 226.724 40.4583 226.724 40.0335V36.6351C226.724 36.1761 226.639 35.7733 226.468 35.4266C226.297 35.075 226.06 34.7845 225.758 34.555C225.455 34.3255 225.096 34.1522 224.681 34.035C224.271 33.9178 223.826 33.8592 223.348 33.8592C222.816 33.8592 222.342 33.9276 221.927 34.0643C221.517 34.1961 221.17 34.3768 220.887 34.6063C220.599 34.8358 220.379 35.1019 220.228 35.4046C220.081 35.7073 220.008 36.0272 220.008 36.3641H222.044C222.044 36.2225 222.064 36.0931 222.103 35.9759C222.147 35.8587 222.213 35.7586 222.3 35.6756C222.398 35.5828 222.525 35.512 222.681 35.4632C222.838 35.4095 223.023 35.3826 223.238 35.3826C223.482 35.3826 223.695 35.4144 223.875 35.4778C224.061 35.5364 224.215 35.6219 224.337 35.7342C224.454 35.8416 224.542 35.971 224.6 36.1224C224.659 36.2689 224.688 36.4349 224.688 36.6204V37.0892H223.553C222.967 37.0892 222.447 37.1429 221.993 37.2503C221.544 37.3528 221.165 37.5042 220.858 37.7044C220.516 37.9241 220.259 38.2049 220.089 38.5467C219.918 38.8836 219.832 39.2718 219.832 39.7112C219.832 40.053 219.901 40.3704 220.037 40.6634C220.174 40.9515 220.364 41.2005 220.609 41.4105C220.853 41.6204 221.143 41.784 221.48 41.9012C221.822 42.0184 222.196 42.077 222.601 42.077C222.85 42.077 223.082 42.0526 223.297 42.0037C223.511 41.9598 223.709 41.8963 223.89 41.8133C224.066 41.7352 224.227 41.6424 224.373 41.535C224.52 41.4276 224.649 41.3128 224.761 41.1907C224.786 41.3323 224.815 41.4666 224.849 41.5936C224.883 41.7205 224.925 41.8328 224.974 41.9305ZM223.033 40.5023C222.842 40.5023 222.674 40.4803 222.528 40.4363C222.386 40.3875 222.266 40.324 222.169 40.2459C222.071 40.1629 221.995 40.0628 221.942 39.9456C221.893 39.8235 221.868 39.6917 221.868 39.5501C221.868 39.3694 221.903 39.2034 221.971 39.0521C222.039 38.8958 222.144 38.7615 222.286 38.6492C222.427 38.5418 222.611 38.4588 222.835 38.4002C223.06 38.3367 223.331 38.305 223.648 38.305H224.688V39.6673C224.63 39.7698 224.549 39.8724 224.446 39.9749C224.344 40.0726 224.222 40.1605 224.08 40.2386C223.939 40.3167 223.78 40.3802 223.604 40.429C223.428 40.4778 223.238 40.5023 223.033 40.5023ZM229.061 44.9774H231.097V41.242C231.19 41.3445 231.287 41.4373 231.39 41.5203C231.492 41.6033 231.6 41.679 231.712 41.7474C231.903 41.8548 232.108 41.9354 232.327 41.9891C232.552 42.0477 232.796 42.077 233.06 42.077C233.558 42.077 234 41.9744 234.385 41.7693C234.771 41.5643 235.096 41.2811 235.36 40.9197C235.618 40.5633 235.814 40.1385 235.946 39.6453C236.082 39.1522 236.151 38.6175 236.151 38.0413V37.8875C236.151 37.2869 236.082 36.7401 235.946 36.2469C235.814 35.7488 235.616 35.3216 235.352 34.9651C235.089 34.6136 234.764 34.3426 234.378 34.1522C233.992 33.9568 233.548 33.8592 233.045 33.8592C232.801 33.8592 232.571 33.886 232.357 33.9398C232.147 33.9886 231.954 34.0594 231.778 34.1522C231.632 34.2303 231.495 34.3231 231.368 34.4305C231.241 34.533 231.124 34.6502 231.016 34.782L230.943 34.0057H229.061V44.9774ZM234.114 37.8875V38.0413C234.114 38.3685 234.085 38.6785 234.027 38.9715C233.968 39.2596 233.875 39.5135 233.748 39.7332C233.621 39.9529 233.455 40.1263 233.25 40.2532C233.05 40.3802 232.806 40.4437 232.518 40.4437C232.337 40.4437 232.174 40.4266 232.027 40.3924C231.881 40.3533 231.751 40.2996 231.639 40.2313C231.522 40.158 231.417 40.0701 231.324 39.9676C231.236 39.8651 231.16 39.7503 231.097 39.6234V36.3128C231.165 36.1761 231.246 36.0565 231.339 35.9539C231.436 35.8514 231.549 35.7659 231.675 35.6976C231.788 35.639 231.912 35.595 232.049 35.5657C232.186 35.5316 232.337 35.5145 232.503 35.5145C232.791 35.5145 233.035 35.5755 233.236 35.6976C233.441 35.8196 233.609 35.9857 233.741 36.1956C233.868 36.4105 233.961 36.6644 234.019 36.9573C234.083 37.2454 234.114 37.5555 234.114 37.8875ZM245.811 35.639V34.0057H237.689V35.639H240.714V41.9305H242.757V35.639H245.811ZM252 41.9305H254.066V41.806C253.963 41.6058 253.885 41.3665 253.831 41.0882C253.778 40.8099 253.751 40.4583 253.751 40.0335V36.6351C253.751 36.1761 253.665 35.7733 253.494 35.4266C253.323 35.075 253.087 34.7845 252.784 34.555C252.481 34.3255 252.122 34.1522 251.707 34.035C251.297 33.9178 250.853 33.8592 250.374 33.8592C249.842 33.8592 249.368 33.9276 248.953 34.0643C248.543 34.1961 248.196 34.3768 247.913 34.6063C247.625 34.8358 247.405 35.1019 247.254 35.4046C247.108 35.7073 247.034 36.0272 247.034 36.3641H249.071C249.071 36.2225 249.09 36.0931 249.129 35.9759C249.173 35.8587 249.239 35.7586 249.327 35.6756C249.425 35.5828 249.551 35.512 249.708 35.4632C249.864 35.4095 250.05 35.3826 250.264 35.3826C250.508 35.3826 250.721 35.4144 250.902 35.4778C251.087 35.5364 251.241 35.6219 251.363 35.7342C251.48 35.8416 251.568 35.971 251.627 36.1224C251.685 36.2689 251.715 36.4349 251.715 36.6204V37.0892H250.579C249.993 37.0892 249.473 37.1429 249.019 37.2503C248.57 37.3528 248.192 37.5042 247.884 37.7044C247.542 37.9241 247.286 38.2049 247.115 38.5467C246.944 38.8836 246.859 39.2718 246.859 39.7112C246.859 40.053 246.927 40.3704 247.064 40.6634C247.2 40.9515 247.391 41.2005 247.635 41.4105C247.879 41.6204 248.17 41.784 248.507 41.9012C248.848 42.0184 249.222 42.077 249.627 42.077C249.876 42.077 250.108 42.0526 250.323 42.0037C250.538 41.9598 250.736 41.8963 250.916 41.8133C251.092 41.7352 251.253 41.6424 251.4 41.535C251.546 41.4276 251.675 41.3128 251.788 41.1907C251.812 41.3323 251.842 41.4666 251.876 41.5936C251.91 41.7205 251.951 41.8328 252 41.9305ZM250.059 40.5023C249.869 40.5023 249.7 40.4803 249.554 40.4363C249.412 40.3875 249.293 40.324 249.195 40.2459C249.097 40.1629 249.022 40.0628 248.968 39.9456C248.919 39.8235 248.895 39.6917 248.895 39.5501C248.895 39.3694 248.929 39.2034 248.997 39.0521C249.066 38.8958 249.171 38.7615 249.312 38.6492C249.454 38.5418 249.637 38.4588 249.862 38.4002C250.086 38.3367 250.357 38.305 250.675 38.305H251.715V39.6673C251.656 39.7698 251.575 39.8724 251.473 39.9749C251.37 40.0726 251.248 40.1605 251.107 40.2386C250.965 40.3167 250.806 40.3802 250.631 40.429C250.455 40.4778 250.264 40.5023 250.059 40.5023Z" fill="white"/>
<rect x="124.351" y="90.0596" width="109.616" height="11.6982" fill="#1969E8"/>
<rect x="233.966" y="107.607" width="86.0066" height="11.6982" fill="#1969E8"/>
<rect x="124.351" y="136.852" width="231.037" height="11.6982" fill="#1969E8"/>
<rect x="124.351" y="160.249" width="195.623" height="11.6982" fill="#1969E8"/>
<rect x="233.966" y="189.494" width="121.421" height="11.6982" fill="#1969E8"/>
<rect x="124.351" y="207.042" width="109.616" height="11.6982" fill="#1969E8"/>
<line x1="29.9102" y1="95.4087" x2="114.23" y2="95.4087" stroke="#929292"/>
<line x1="29.9102" y1="118.805" x2="114.23" y2="118.805" stroke="#929292"/>
<line x1="29.9102" y1="142.201" x2="114.23" y2="142.201" stroke="#929292"/>
<line x1="29.9102" y1="165.598" x2="114.23" y2="165.598" stroke="#929292"/>
<line x1="29.9102" y1="188.994" x2="114.23" y2="188.994" stroke="#929292"/>
<line x1="29.9102" y1="212.391" x2="114.23" y2="212.391" stroke="#929292"/>
</svg>
