<svg width="261" height="160" viewBox="0 0 261 160" fill="none" xmlns="http://www.w3.org/2000/svg">
<rect x="0.5" y="0.5" width="260" height="159" fill="white" stroke="black"/>
<rect x="0.497656" y="0.502333" width="36.1929" height="5.29171" rx="2.64586" transform="matrix(-0.00467664 0.999989 0.999989 0.00467664 128.283 120.002)" fill="#BEBEBE" fill-opacity="0.7" stroke="black"/>
<circle cx="131" cy="71" r="48.5" stroke="black" stroke-opacity="0.7"/>
<path d="M110.317 46.1344L111.482 46.1358C111.908 46.1363 112.293 46.0758 112.637 45.9545C112.981 45.8331 113.275 45.6634 113.519 45.4452C113.759 45.2306 113.944 44.9748 114.073 44.6778C114.206 44.3807 114.272 44.0567 114.273 43.7058C114.273 43.3298 114.207 42.9878 114.075 42.6797C113.947 42.3716 113.762 42.1064 113.523 41.8842C113.28 41.6655 112.986 41.4951 112.643 41.3729C112.299 41.2472 111.914 41.1841 111.488 41.1836L108.813 41.1806L108.804 49.0009L110.314 49.0026L110.317 46.1344ZM110.318 44.9098L110.321 42.4069L111.487 42.4082C111.701 42.4085 111.888 42.4427 112.045 42.5109C112.203 42.5791 112.335 42.6724 112.442 42.7907C112.546 42.9089 112.623 43.0469 112.673 43.2045C112.726 43.3621 112.753 43.5322 112.753 43.7148C112.752 43.8724 112.725 44.0245 112.672 44.1713C112.621 44.3145 112.544 44.4415 112.44 44.5524C112.333 44.6633 112.2 44.7508 112.042 44.8151C111.885 44.8794 111.699 44.9114 111.484 44.9112L110.318 44.9098ZM119.548 43.0941C119.157 43.0937 118.798 43.1882 118.468 43.3776C118.138 43.5634 117.855 43.8209 117.618 44.15L117.608 44.0211L117.55 43.1993L116.159 43.1977L116.152 49.0092L117.645 49.0109L117.649 45.5197C117.717 45.3551 117.803 45.2119 117.907 45.0903C118.011 44.9687 118.137 44.8686 118.284 44.79C118.405 44.7221 118.543 44.6721 118.697 44.64C118.855 44.6044 119.03 44.5867 119.224 44.5869C119.41 44.5871 119.605 44.5999 119.809 44.6252C120.017 44.6469 120.219 44.6811 120.416 44.7279L120.638 43.2404C120.52 43.2044 120.364 43.172 120.171 43.1432C119.981 43.1107 119.773 43.0944 119.548 43.0941ZM121.773 46.0561L121.773 46.1689C121.773 46.595 121.833 46.989 121.955 47.3508C122.076 47.709 122.255 48.0207 122.491 48.2859C122.723 48.5512 123.009 48.7592 123.349 48.91C123.693 49.0572 124.083 49.131 124.52 49.1315C124.953 49.132 125.34 49.059 125.68 48.9126C126.021 48.7626 126.307 48.5552 126.54 48.2905C126.773 48.0258 126.951 47.7145 127.073 47.3566C127.195 46.995 127.257 46.6012 127.257 46.1751L127.257 46.0623C127.258 45.6398 127.197 45.2494 127.076 44.8912C126.955 44.5294 126.778 44.2159 126.545 43.9507C126.309 43.6854 126.021 43.4774 125.681 43.3267C125.341 43.1759 124.953 43.1003 124.516 43.0998C124.079 43.0993 123.691 43.174 123.35 43.324C123.014 43.474 122.729 43.6814 122.496 43.9461C122.259 44.2108 122.08 44.5239 121.957 44.8854C121.835 45.2434 121.774 45.6336 121.773 46.0561ZM123.266 46.1706L123.267 46.0578C123.267 45.8215 123.29 45.5977 123.337 45.3865C123.384 45.1753 123.458 44.9892 123.558 44.8282C123.658 44.6671 123.788 44.5402 123.945 44.4473C124.103 44.3543 124.293 44.308 124.515 44.3083C124.74 44.3085 124.932 44.3553 125.089 44.4486C125.247 44.5418 125.375 44.6691 125.476 44.8303C125.572 44.9916 125.643 45.1779 125.69 45.3892C125.736 45.6005 125.759 45.8243 125.759 46.0606L125.759 46.1734C125.758 46.4169 125.735 46.6461 125.688 46.8609C125.641 47.0721 125.569 47.2564 125.473 47.4138C125.372 47.5748 125.243 47.7018 125.085 47.7947C124.928 47.8877 124.74 47.934 124.521 47.9337C124.296 47.9335 124.102 47.8867 123.941 47.7934C123.784 47.7002 123.655 47.5729 123.555 47.4117C123.455 47.254 123.382 47.0695 123.336 46.8582C123.289 46.6433 123.266 46.4141 123.266 46.1706ZM128.428 46.0744L128.428 46.1872C128.428 46.6097 128.479 47.0019 128.583 47.3636C128.686 47.7218 128.836 48.0317 129.033 48.2934C129.226 48.555 129.462 48.7611 129.741 48.9118C130.024 49.059 130.342 49.1327 130.697 49.1331C131.023 49.1335 131.309 49.0712 131.556 48.9461C131.804 48.8211 132.019 48.6459 132.201 48.4205L132.276 49.0275L133.624 49.029L133.633 40.779L132.135 40.7773L132.132 43.7368C131.953 43.5361 131.747 43.3819 131.514 43.2742C131.285 43.1629 131.019 43.1071 130.714 43.1068C130.353 43.1064 130.03 43.1776 129.747 43.3205C129.468 43.4634 129.229 43.6655 129.032 43.9267C128.835 44.1878 128.684 44.501 128.58 44.8661C128.479 45.2312 128.429 45.634 128.428 46.0744ZM129.921 46.1889L129.921 46.0761C129.922 45.8326 129.943 45.6053 129.987 45.394C130.03 45.1792 130.098 44.9913 130.191 44.8303C130.285 44.6729 130.405 44.5495 130.552 44.4601C130.702 44.3672 130.883 44.3208 131.094 44.3211C131.348 44.3214 131.56 44.3771 131.728 44.4883C131.896 44.5959 132.03 44.7482 132.13 44.9453L132.128 47.2978C132.027 47.4911 131.891 47.6431 131.719 47.7539C131.55 47.8647 131.337 47.92 131.079 47.9197C130.868 47.9195 130.689 47.8745 130.542 47.7848C130.396 47.6951 130.276 47.5715 130.183 47.4138C130.09 47.2597 130.022 47.0788 129.98 46.8711C129.94 46.6598 129.921 46.4324 129.921 46.1889ZM138.979 49.0351L140.333 49.0366L140.339 43.2251L138.841 43.2234L138.836 47.3001C138.789 47.3931 138.734 47.4772 138.669 47.5523C138.605 47.6274 138.531 47.6918 138.449 47.7454C138.352 47.8062 138.239 47.8526 138.11 47.8847C137.985 47.9168 137.843 47.9327 137.686 47.9326C137.51 47.9324 137.362 47.9107 137.24 47.8676C137.118 47.8245 137.02 47.7528 136.945 47.6524C136.87 47.5557 136.815 47.4267 136.779 47.2655C136.747 47.1043 136.731 46.9056 136.731 46.6693L136.735 43.221L135.242 43.2193L135.238 46.6568C135.238 47.0973 135.286 47.4751 135.382 47.7903C135.482 48.1019 135.621 48.3581 135.8 48.5588C135.979 48.7631 136.193 48.912 136.444 49.0054C136.694 49.0987 136.97 49.1456 137.271 49.146C137.6 49.1463 137.903 49.0643 138.179 48.8999C138.458 48.7355 138.697 48.5084 138.894 48.2186L138.979 49.0351ZM144.367 47.9562C144.128 47.956 143.929 47.9074 143.771 47.8105C143.618 47.7137 143.496 47.5846 143.407 47.4234C143.314 47.2658 143.25 47.0831 143.214 46.8753C143.178 46.664 143.161 46.4456 143.161 46.22L143.161 46.0589C143.161 45.8369 143.18 45.622 143.216 45.4144C143.255 45.2068 143.322 45.0224 143.415 44.8614C143.505 44.7004 143.627 44.5716 143.781 44.4751C143.935 44.3786 144.13 44.3305 144.366 44.3307C144.527 44.3309 144.676 44.3597 144.812 44.4172C144.948 44.4711 145.064 44.5446 145.161 44.6378C145.257 44.731 145.331 44.8421 145.381 44.9711C145.431 45.1 145.452 45.2361 145.445 45.3793L146.852 45.3809C146.859 45.0372 146.802 44.7274 146.681 44.4515C146.56 44.1721 146.39 43.9338 146.172 43.7366C145.95 43.543 145.687 43.3923 145.383 43.2845C145.078 43.1768 144.747 43.1227 144.389 43.1223C143.941 43.1218 143.548 43.1983 143.207 43.3519C142.87 43.5055 142.587 43.7146 142.358 43.9794C142.128 44.2441 141.956 44.5554 141.841 44.9133C141.726 45.2677 141.668 45.649 141.668 46.0572L141.668 46.2183C141.667 46.6265 141.724 47.0097 141.838 47.3679C141.956 47.7225 142.129 48.0325 142.358 48.2977C142.584 48.5629 142.866 48.7727 143.206 48.9271C143.546 49.0779 143.942 49.1535 144.393 49.154C144.726 49.1544 145.041 49.1028 145.338 48.9993C145.639 48.8923 145.903 48.7457 146.129 48.5598C146.354 48.3739 146.532 48.1521 146.661 47.8944C146.794 47.6367 146.857 47.3575 146.85 47.0567L145.443 47.0551C145.45 47.1912 145.425 47.3147 145.367 47.4256C145.313 47.5366 145.236 47.6314 145.136 47.71C145.035 47.7887 144.919 47.8494 144.787 47.8923C144.654 47.9351 144.514 47.9564 144.367 47.9562ZM151.147 41.814L149.654 41.8123L149.653 43.2357L148.326 43.2342L148.325 44.3352L149.651 44.3367L149.648 46.9793C149.648 47.3625 149.698 47.6919 149.798 47.9678C149.898 48.24 150.041 48.464 150.227 48.6396C150.409 48.8189 150.629 48.9516 150.887 49.0378C151.148 49.1205 151.438 49.162 151.757 49.1624C151.921 49.1626 152.088 49.1538 152.256 49.1361C152.428 49.122 152.593 49.1007 152.751 49.0722C152.908 49.0437 153.057 49.0081 153.196 48.9653C153.336 48.9189 153.458 48.8653 153.562 48.8046L153.418 47.7785C153.35 47.7963 153.268 47.8141 153.171 47.8319C153.078 47.8497 152.977 47.8657 152.87 47.8799C152.759 47.8977 152.643 47.9119 152.521 47.9225C152.403 47.9331 152.286 47.9384 152.172 47.9382C152.014 47.938 151.871 47.92 151.742 47.884C151.617 47.8481 151.509 47.7871 151.42 47.701C151.331 47.6186 151.261 47.5075 151.211 47.3678C151.165 47.2245 151.141 47.0472 151.142 46.836L151.145 44.3384L153.314 44.3409L153.316 43.2398L151.146 43.2374L151.147 41.814Z" fill="black"/>
<path d="M113.569 56.1838L111.695 56.1817L111.686 64.002L113.072 64.0036L113.074 61.6886L113.014 58.1759L113.929 61.4264L114.675 61.4272L115.705 58.0339L115.636 61.6915L115.634 64.0065L117.02 64.008L117.028 56.1877L115.154 56.1856L114.307 59.1226L113.569 56.1838ZM121.999 64.0137L123.513 64.0154L123.513 63.9241C123.438 63.7772 123.381 63.6017 123.342 63.3975C123.303 63.1934 123.284 62.9355 123.284 62.624L123.287 60.1318C123.287 59.7952 123.225 59.4998 123.1 59.2454C122.975 58.9874 122.801 58.7742 122.579 58.6056C122.358 58.4371 122.095 58.3097 121.79 58.2234C121.49 58.1371 121.164 58.0938 120.813 58.0934C120.423 58.0929 120.075 58.1427 119.771 58.2426C119.47 58.3389 119.215 58.4711 119.008 58.6392C118.796 58.8072 118.635 59.0022 118.524 59.2241C118.416 59.446 118.362 59.6804 118.362 59.9275L119.855 59.9292C119.855 59.8254 119.869 59.7305 119.898 59.6446C119.93 59.5587 119.979 59.4853 120.043 59.4245C120.115 59.3566 120.208 59.3048 120.323 59.2691C120.437 59.2298 120.574 59.2103 120.731 59.2105C120.91 59.2107 121.066 59.2341 121.198 59.2808C121.334 59.324 121.447 59.3867 121.536 59.4692C121.622 59.5481 121.687 59.643 121.73 59.7541C121.772 59.8616 121.794 59.9833 121.794 60.1194L121.793 60.4631L120.961 60.4622C120.531 60.4617 120.15 60.5007 119.816 60.5791C119.487 60.6539 119.209 60.7646 118.984 60.9111C118.733 61.072 118.545 61.2777 118.419 61.5282C118.293 61.7751 118.23 62.0597 118.23 62.382C118.23 62.6326 118.28 62.8654 118.38 63.0804C118.48 63.2917 118.619 63.4745 118.798 63.6287C118.977 63.7829 119.19 63.9031 119.437 63.9893C119.687 64.0755 119.961 64.1188 120.258 64.1191C120.441 64.1193 120.611 64.1016 120.769 64.066C120.926 64.0339 121.071 63.9876 121.204 63.9268C121.333 63.8697 121.451 63.8018 121.559 63.7231C121.666 63.6445 121.761 63.5604 121.843 63.471C121.861 63.5749 121.883 63.6734 121.908 63.7665C121.933 63.8596 121.963 63.942 121.999 64.0137ZM120.576 62.9647C120.437 62.9645 120.313 62.9483 120.206 62.9159C120.102 62.88 120.014 62.8334 119.943 62.776C119.871 62.715 119.816 62.6416 119.777 62.5556C119.741 62.466 119.723 62.3693 119.723 62.2655C119.723 62.133 119.749 62.0113 119.799 61.9003C119.849 61.7858 119.926 61.6874 120.03 61.6052C120.134 61.5265 120.268 61.4658 120.433 61.423C120.598 61.3767 120.797 61.3536 121.029 61.3539L121.792 61.3547L121.791 62.3538C121.748 62.4289 121.689 62.504 121.614 62.5792C121.538 62.6507 121.449 62.715 121.345 62.7722C121.241 62.8294 121.124 62.8758 120.995 62.9115C120.867 62.9471 120.727 62.9649 120.576 62.9647ZM129.154 58.1028C128.764 58.1024 128.404 58.1969 128.074 58.3863C127.745 58.5721 127.462 58.8296 127.225 59.1588L127.214 59.0298L127.156 58.208L125.765 58.2064L125.758 64.0179L127.252 64.0196L127.255 60.5284C127.324 60.3638 127.41 60.2206 127.514 60.099C127.618 59.9774 127.743 59.8773 127.89 59.7987C128.012 59.7308 128.15 59.6808 128.304 59.6487C128.461 59.6131 128.637 59.5954 128.83 59.5956C129.016 59.5958 129.212 59.6086 129.416 59.6339C129.623 59.6556 129.826 59.6899 130.022 59.7366L130.244 58.2491C130.126 58.2131 129.971 58.1807 129.777 58.1519C129.587 58.1194 129.38 58.1031 129.154 58.1028ZM133.769 61.6261L135.416 64.0289L137.247 64.031L134.753 60.639L136.948 58.2191L135.154 58.2171L133.546 59.977L133.094 60.4921L133.099 55.7762L131.606 55.7746L131.597 64.0245L133.09 64.0262L133.092 62.2538L133.769 61.6261ZM141.007 64.1426C141.569 64.1433 142.056 64.0346 142.468 63.8167C142.88 63.5987 143.181 63.3555 143.371 63.0872L142.626 62.2807C142.453 62.5025 142.229 62.6688 141.954 62.7794C141.678 62.8901 141.393 62.9453 141.099 62.945C140.892 62.9448 140.7 62.9123 140.525 62.8477C140.349 62.783 140.194 62.6915 140.058 62.5732C139.926 62.4585 139.82 62.3312 139.741 62.1915C139.663 62.0482 139.599 61.8601 139.549 61.6273L139.549 61.6112L143.491 61.6157L143.492 60.9819C143.492 60.5558 143.434 60.1672 143.316 59.8161C143.198 59.4615 143.027 59.1588 142.801 58.9078C142.572 58.6569 142.293 58.4633 141.964 58.3268C141.638 58.1868 141.266 58.1166 140.847 58.1161C140.442 58.1156 140.068 58.1886 139.724 58.335C139.38 58.4814 139.083 58.687 138.832 58.9517C138.581 59.2164 138.386 59.5331 138.245 59.9017C138.105 60.2668 138.035 60.6713 138.035 61.1153L138.034 61.3302C138.034 61.7205 138.103 62.0876 138.243 62.4315C138.385 62.7718 138.587 63.0675 138.849 63.3184C139.11 63.5729 139.423 63.7738 139.788 63.921C140.153 64.0683 140.559 64.1421 141.007 64.1426ZM140.835 59.3246C141.025 59.3248 141.191 59.3554 141.334 59.4164C141.481 59.4739 141.605 59.5528 141.705 59.6532C141.805 59.7571 141.884 59.879 141.941 60.0187C141.998 60.1584 142.026 60.307 142.026 60.4646L142.026 60.5828L139.577 60.58C139.613 60.3902 139.667 60.2184 139.738 60.0645C139.81 59.9106 139.9 59.7783 140.007 59.6674C140.111 59.5565 140.233 59.4725 140.373 59.4154C140.513 59.3546 140.667 59.3244 140.835 59.3246ZM147.541 56.8078L146.048 56.8061L146.046 58.2294L144.72 58.2279L144.718 59.329L146.045 59.3305L146.042 61.973C146.042 62.3562 146.091 62.6857 146.191 62.9615C146.291 63.2337 146.434 63.4577 146.62 63.6334C146.803 63.8126 147.023 63.9454 147.28 64.0316C147.542 64.1142 147.832 64.1557 148.15 64.1561C148.315 64.1563 148.482 64.1475 148.65 64.1298C148.822 64.1157 148.986 64.0944 149.144 64.0659C149.302 64.0375 149.45 64.0018 149.59 63.959C149.73 63.9126 149.851 63.859 149.955 63.7983L149.812 62.7722C149.743 62.7901 149.661 62.8079 149.564 62.8257C149.471 62.8435 149.371 62.8595 149.264 62.8737C149.153 62.8914 149.036 62.9056 148.914 62.9162C148.796 62.9269 148.68 62.9321 148.565 62.932C148.408 62.9318 148.265 62.9137 148.136 62.8778C148.01 62.8418 147.903 62.7808 147.814 62.6948C147.724 62.6123 147.654 62.5012 147.604 62.3615C147.558 62.2183 147.535 62.041 147.535 61.8297L147.538 59.3322L149.708 59.3346L149.709 58.2335L147.539 58.2311L147.541 56.8078Z" fill="black"/>
<path d="M113.993 96.0046L115.809 96.0067L118.619 86.7676L116.651 86.7654L115.07 92.7939L114.898 93.4221L114.74 92.7999L113.179 86.7615L111.211 86.7593L113.993 96.0046ZM123.997 96.0159L125.787 96.018L125.787 95.9101C125.699 95.7365 125.631 95.529 125.585 95.2878C125.539 95.0465 125.516 94.7418 125.516 94.3736L125.52 91.4283C125.52 91.0305 125.446 90.6813 125.299 90.3807C125.151 90.0758 124.946 89.8238 124.684 89.6246C124.422 89.4254 124.111 89.2748 123.751 89.1729C123.396 89.0709 123.011 89.0197 122.596 89.0192C122.135 89.0187 121.724 89.0775 121.364 89.1956C121.009 89.3094 120.708 89.4657 120.463 89.6643C120.213 89.8629 120.022 90.0933 119.89 90.3555C119.763 90.6177 119.699 90.8949 119.699 91.1868L121.464 91.1888C121.464 91.0661 121.481 90.954 121.515 90.8525C121.553 90.751 121.61 90.6643 121.687 90.5924C121.771 90.5121 121.881 90.4509 122.017 90.4087C122.152 90.3623 122.313 90.3392 122.499 90.3394C122.711 90.3397 122.895 90.3674 123.051 90.4226C123.212 90.4735 123.345 90.5477 123.451 90.6452C123.553 90.7384 123.629 90.8506 123.679 90.9819C123.73 91.1089 123.755 91.2528 123.755 91.4136L123.755 91.8199L122.771 91.8187C122.263 91.8182 121.812 91.8642 121.418 91.9569C121.029 92.0453 120.701 92.1761 120.434 92.3493C120.138 92.5394 119.915 92.7825 119.767 93.0785C119.618 93.3703 119.544 93.7067 119.543 94.0875C119.543 94.3838 119.602 94.6589 119.72 94.9129C119.838 95.1628 120.003 95.3788 120.215 95.561C120.426 95.7432 120.678 95.8852 120.97 95.9871C121.266 96.089 121.589 96.1402 121.941 96.1406C122.156 96.1408 122.357 96.1199 122.544 96.0778C122.73 96.0399 122.901 95.9851 123.058 95.9133C123.21 95.8458 123.35 95.7655 123.477 95.6726C123.604 95.5796 123.717 95.4803 123.814 95.3746C123.835 95.4974 123.86 95.6138 123.89 95.7238C123.919 95.8339 123.955 95.9313 123.997 96.0159ZM122.317 94.7762C122.152 94.7761 122.006 94.7568 121.879 94.7186C121.756 94.6762 121.652 94.621 121.568 94.5532C121.483 94.4812 121.418 94.3944 121.371 94.2927C121.329 94.1869 121.308 94.0726 121.308 93.9499C121.308 93.7933 121.338 93.6495 121.398 93.5184C121.457 93.383 121.548 93.2667 121.671 93.1695C121.794 93.0766 121.953 93.0048 122.147 92.9543C122.342 92.8995 122.577 92.8722 122.852 92.8725L123.753 92.8736L123.752 94.0542C123.701 94.143 123.631 94.2318 123.542 94.3206C123.453 94.4051 123.347 94.4812 123.225 94.5488C123.102 94.6163 122.964 94.6712 122.812 94.7133C122.659 94.7555 122.494 94.7764 122.317 94.7762ZM127.893 86.2703L127.891 87.7113L129.948 87.7136L129.94 94.5881L127.884 94.5858L127.882 96.0203L133.69 96.0269L133.692 94.5924L131.724 94.5901L131.733 86.2747L127.893 86.2703ZM139.803 96.0338L141.403 96.0357L141.41 89.1675L139.639 89.1655L139.634 93.9834C139.579 94.0933 139.513 94.1927 139.437 94.2815C139.361 94.3703 139.274 94.4463 139.176 94.5097C139.062 94.5815 138.929 94.6364 138.776 94.6743C138.628 94.7122 138.461 94.7311 138.275 94.7308C138.067 94.7306 137.892 94.705 137.748 94.6541C137.604 94.6031 137.488 94.5184 137.399 94.3998C137.31 94.2854 137.245 94.133 137.203 93.9425C137.165 93.752 137.146 93.5172 137.146 93.2379L137.151 89.1627L135.386 89.1607L135.382 93.2232C135.381 93.7437 135.438 94.1902 135.552 94.5627C135.67 94.931 135.834 95.2338 136.046 95.471C136.257 95.7124 136.511 95.8884 136.807 95.9987C137.103 96.1091 137.429 96.1645 137.784 96.1649C138.174 96.1653 138.531 96.0684 138.857 95.8741C139.188 95.6798 139.469 95.4114 139.702 95.0689L139.803 96.0338ZM146.462 96.1683C147.126 96.1691 147.702 96.0407 148.189 95.7831C148.675 95.5255 149.031 95.2382 149.256 94.921L148.375 93.9679C148.171 94.23 147.907 94.4265 147.581 94.5573C147.255 94.6881 146.918 94.7533 146.571 94.7529C146.326 94.7527 146.099 94.7143 145.892 94.6379C145.685 94.5615 145.501 94.4534 145.34 94.3136C145.184 94.178 145.059 94.0276 144.966 93.8625C144.873 93.6931 144.797 93.4708 144.738 93.1957L144.738 93.1766L149.398 93.1819L149.398 92.4329C149.399 91.9293 149.33 91.4701 149.19 91.0552C149.051 90.6361 148.849 90.2783 148.582 89.9818C148.312 89.6853 147.982 89.4564 147.593 89.2951C147.208 89.1296 146.768 89.0466 146.273 89.0461C145.795 89.0455 145.352 89.1318 144.946 89.3048C144.539 89.4779 144.188 89.7208 143.891 90.0336C143.595 90.3464 143.364 90.7207 143.198 91.1563C143.033 91.5878 142.95 92.0659 142.949 92.5906L142.949 92.8445C142.948 93.3058 143.03 93.7397 143.195 94.1461C143.364 94.5483 143.602 94.8977 143.911 95.1943C144.219 95.4951 144.589 95.7325 145.021 95.9065C145.452 96.0805 145.933 96.1677 146.462 96.1683ZM146.258 90.4743C146.483 90.4745 146.68 90.5107 146.849 90.5828C147.022 90.6507 147.168 90.744 147.286 90.8626C147.405 90.9855 147.498 91.1295 147.565 91.2946C147.633 91.4597 147.666 91.6354 147.666 91.8216L147.666 91.9612L144.771 91.9579C144.814 91.7337 144.878 91.5306 144.963 91.3488C145.047 91.1669 145.153 91.0104 145.28 90.8794C145.403 90.7484 145.547 90.6491 145.712 90.5816C145.878 90.5098 146.06 90.474 146.258 90.4743Z" fill="black"/>
<path d="M110.256 76.1149L108.472 76.1129C108.455 76.3922 108.408 76.6312 108.332 76.83C108.255 77.0288 108.152 77.1916 108.02 77.3184C107.889 77.4452 107.73 77.5381 107.544 77.5972C107.358 77.6562 107.148 77.6856 106.915 77.6853C106.742 77.6851 106.583 77.6659 106.439 77.6277C106.3 77.5852 106.173 77.5216 106.059 77.4368C105.953 77.3605 105.858 77.2652 105.773 77.1508C105.693 77.0365 105.623 76.9052 105.564 76.757C105.48 76.5411 105.417 76.2893 105.375 76.0015C105.337 75.7094 105.318 75.3793 105.319 75.0112L105.32 73.7543C105.32 73.4835 105.333 73.2317 105.359 72.999C105.385 72.762 105.425 72.5463 105.48 72.3517C105.553 72.1021 105.648 71.8842 105.767 71.6982C105.89 71.5079 106.038 71.3621 106.212 71.2607C106.313 71.2016 106.423 71.1573 106.542 71.1278C106.665 71.0983 106.796 71.0836 106.935 71.0838C107.198 71.0841 107.422 71.1203 107.608 71.1925C107.799 71.2604 107.957 71.3621 108.084 71.4977C108.207 71.6375 108.299 71.8111 108.363 72.0185C108.43 72.2259 108.472 72.4672 108.489 72.7423L110.266 72.7443C110.224 72.2618 110.123 71.828 109.963 71.4427C109.803 71.0574 109.583 70.7313 109.304 70.4644C109.025 70.1975 108.687 69.9919 108.289 69.8475C107.896 69.7032 107.445 69.6308 106.937 69.6302C106.594 69.6298 106.273 69.6739 105.972 69.7624C105.676 69.8467 105.403 69.9691 105.153 70.1296C104.873 70.3197 104.623 70.5522 104.403 70.827C104.183 71.1018 104.005 71.4148 103.869 71.7659C103.75 72.0535 103.661 72.3665 103.601 72.705C103.542 73.0393 103.511 73.3926 103.511 73.765L103.51 75.0091C103.509 75.4069 103.541 75.7836 103.604 76.1391C103.671 76.4946 103.766 76.8206 103.888 77.117C104.015 77.4133 104.169 77.6843 104.351 77.93C104.537 78.1756 104.748 78.3853 104.985 78.5591C105.243 78.7456 105.532 78.8898 105.854 78.9917C106.18 79.0894 106.533 79.1385 106.914 79.1389C107.396 79.1395 107.836 79.0702 108.234 78.931C108.632 78.7875 108.975 78.5848 109.263 78.3228C109.551 78.0607 109.78 77.7436 109.95 77.3714C110.124 76.9992 110.226 76.5804 110.256 76.1149ZM112.086 69.2615L112.084 70.7024L114.141 70.7047L114.133 77.5793L112.076 77.5769L112.074 79.0115L117.883 79.0181L117.884 77.5835L115.916 77.5813L115.926 69.2658L112.086 69.2615ZM119.991 72.1523L119.99 73.5932L121.945 73.5954L121.94 77.5881L119.985 77.5859L119.984 79.0205L125.582 79.0268L125.584 77.5922L123.724 77.5901L123.73 72.1565L119.991 72.1523ZM121.822 70.3961C121.821 70.5315 121.845 70.6585 121.891 70.777C121.942 70.8913 122.011 70.9887 122.1 71.0692C122.189 71.154 122.295 71.2197 122.417 71.2664C122.544 71.3131 122.684 71.3365 122.836 71.3367C123.149 71.337 123.397 71.2506 123.579 71.0773C123.765 70.8997 123.859 70.6734 123.859 70.3984C123.859 70.1233 123.767 69.8989 123.581 69.7252C123.399 69.5473 123.151 69.4581 122.838 69.4578C122.686 69.4576 122.546 69.4807 122.419 69.5271C122.296 69.5735 122.191 69.6369 122.102 69.7172C122.013 69.8017 121.943 69.9032 121.892 70.0216C121.845 70.1358 121.822 70.2607 121.822 70.3961ZM130.654 79.1595C131.318 79.1603 131.894 79.0318 132.381 78.7742C132.868 78.5167 133.224 78.2293 133.448 77.9122L132.567 76.959C132.364 77.2212 132.099 77.4176 131.773 77.5485C131.447 77.6793 131.11 77.7445 130.763 77.7441C130.518 77.7438 130.292 77.7055 130.084 77.6291C129.877 77.5527 129.693 77.4445 129.532 77.3047C129.376 77.1691 129.251 77.0187 129.158 76.8536C129.066 76.6842 128.99 76.462 128.931 76.1868L128.931 76.1678L133.59 76.1731L133.591 75.4241C133.591 74.9205 133.522 74.4612 133.383 74.0464C133.244 73.6273 133.041 73.2695 132.775 72.9729C132.504 72.6764 132.174 72.4475 131.785 72.2863C131.4 72.1208 130.96 72.0378 130.465 72.0372C129.987 72.0367 129.545 72.1229 129.138 72.296C128.732 72.469 128.38 72.7119 128.084 73.0247C127.787 73.3376 127.556 73.7118 127.391 74.1475C127.225 74.579 127.142 75.057 127.141 75.5818L127.141 75.8357C127.141 76.297 127.223 76.7308 127.387 77.1372C127.556 77.5395 127.795 77.8888 128.103 78.1854C128.412 78.4862 128.782 78.7236 129.213 78.8976C129.645 79.0716 130.125 79.1589 130.654 79.1595ZM130.451 73.4654C130.675 73.4657 130.872 73.5019 131.041 73.574C131.215 73.6419 131.36 73.7352 131.479 73.8538C131.597 73.9766 131.69 74.1206 131.758 74.2857C131.825 74.4509 131.859 74.6265 131.859 74.8127L131.858 74.9524L128.964 74.9491C129.006 74.7248 129.07 74.5218 129.155 74.3399C129.24 74.1581 129.346 74.0016 129.473 73.8706C129.596 73.7395 129.74 73.6402 129.905 73.5727C130.07 73.501 130.252 73.4652 130.451 73.4654ZM135.129 79.0376L136.9 79.0396L136.906 74.1583C136.965 74.0652 137.031 73.9807 137.103 73.9046C137.175 73.8285 137.255 73.763 137.344 73.7081C137.454 73.632 137.579 73.5751 137.719 73.5371C137.863 73.4992 138.019 73.4803 138.189 73.4805C138.392 73.4808 138.574 73.5021 138.734 73.5446C138.895 73.5829 139.033 73.6529 139.147 73.7546C139.261 73.8563 139.348 73.996 139.407 74.1738C139.47 74.3474 139.501 74.5696 139.501 74.8404L139.496 79.0426L141.261 79.0446L141.266 74.817C141.266 74.3177 141.208 73.8944 141.089 73.5473C140.976 73.1959 140.815 72.908 140.608 72.6835C140.397 72.4632 140.147 72.3021 139.86 72.2002C139.572 72.0983 139.255 72.0472 138.908 72.0468C138.637 72.0465 138.381 72.0843 138.139 72.1602C137.898 72.2361 137.676 72.3458 137.472 72.4895C137.354 72.574 137.242 72.6691 137.136 72.7748C137.03 72.8804 136.932 72.9967 136.843 73.1235L136.737 72.1713L135.137 72.1695L135.129 79.0376ZM146.184 70.4998L144.419 70.4978L144.417 72.18L142.849 72.1782L142.848 73.4795L144.416 73.4812L144.412 76.6043C144.412 77.0571 144.47 77.4465 144.589 77.7725C144.707 78.0942 144.876 78.3589 145.095 78.5665C145.311 78.7783 145.571 78.9352 145.876 79.0371C146.185 79.1348 146.527 79.1838 146.904 79.1843C147.099 79.1845 147.295 79.1741 147.494 79.1532C147.697 79.1365 147.892 79.1113 148.078 79.0777C148.265 79.044 148.44 79.0019 148.605 78.9513C148.77 78.8965 148.914 78.8332 149.037 78.7614L148.867 77.5488C148.787 77.5699 148.689 77.5909 148.575 77.6119C148.465 77.633 148.347 77.6519 148.22 77.6687C148.088 77.6897 147.951 77.7064 147.807 77.719C147.667 77.7315 147.53 77.7377 147.394 77.7376C147.208 77.7373 147.039 77.716 146.887 77.6735C146.738 77.631 146.612 77.5589 146.506 77.4572C146.4 77.3598 146.318 77.2285 146.259 77.0634C146.204 76.8941 146.177 76.6846 146.177 76.4349L146.18 73.4832L148.745 73.4861L148.746 72.1849L146.182 72.182L146.184 70.4998ZM155.177 77.1751C155.177 77.2809 155.149 77.3782 155.094 77.467C155.043 77.5558 154.965 77.634 154.859 77.7016C154.749 77.7692 154.607 77.824 154.434 77.8661C154.264 77.904 154.065 77.9228 153.837 77.9226C153.647 77.9224 153.46 77.9031 153.278 77.8648C153.101 77.8265 152.942 77.765 152.803 77.6802C152.663 77.5996 152.549 77.4937 152.46 77.3624C152.371 77.2269 152.321 77.0661 152.308 76.8798L150.626 76.8779C150.626 77.1572 150.693 77.4366 150.828 77.7161C150.968 77.9913 151.171 78.2369 151.437 78.4531C151.703 78.6734 152.033 78.8515 152.427 78.9874C152.824 79.1233 153.281 79.1915 153.797 79.1921C154.267 79.1926 154.693 79.1423 155.073 79.0412C155.454 78.9358 155.78 78.7902 156.052 78.6043C156.318 78.4184 156.524 78.1986 156.668 77.9448C156.816 77.6869 156.891 77.4055 156.891 77.1009C156.891 76.7708 156.818 76.4872 156.67 76.25C156.526 76.0086 156.326 75.8032 156.068 75.6336C155.81 75.4683 155.503 75.3325 155.148 75.2263C154.792 75.1201 154.407 75.0329 153.993 74.9648C153.705 74.9221 153.468 74.8732 153.282 74.818C153.096 74.7585 152.95 74.6927 152.844 74.6207C152.734 74.5528 152.658 74.4766 152.616 74.3919C152.574 74.303 152.553 74.2078 152.553 74.1062C152.553 74.0046 152.576 73.9094 152.623 73.8206C152.674 73.7276 152.746 73.6473 152.839 73.5797C152.941 73.5036 153.072 73.4445 153.233 73.4024C153.394 73.3602 153.582 73.3393 153.798 73.3395C154.052 73.3398 154.267 73.3718 154.445 73.4355C154.627 73.4992 154.771 73.584 154.876 73.6899C154.952 73.7704 155.01 73.8614 155.047 73.963C155.085 74.0604 155.104 74.1662 155.104 74.2805L156.869 74.2825C156.869 73.9651 156.8 73.6709 156.66 73.3999C156.521 73.1289 156.32 72.8938 156.058 72.6946C155.792 72.4997 155.468 72.347 155.088 72.2365C154.707 72.1218 154.277 72.0642 153.799 72.0637C153.342 72.0631 152.932 72.1198 152.568 72.2336C152.203 72.3475 151.894 72.5016 151.64 72.696C151.386 72.8903 151.191 73.1165 151.055 73.3745C150.92 73.6325 150.852 73.9033 150.851 74.1868C150.851 74.4788 150.916 74.737 151.047 74.9614C151.182 75.1859 151.368 75.3828 151.605 75.5524C151.842 75.7262 152.125 75.8746 152.455 75.9977C152.79 76.1165 153.158 76.2164 153.559 76.2973C153.877 76.3569 154.139 76.4164 154.346 76.4759C154.554 76.5354 154.721 76.599 154.848 76.6669C154.97 76.739 155.055 76.8152 155.101 76.8957C155.152 76.9762 155.177 77.0693 155.177 77.1751Z" fill="black"/>
</svg>
