<svg width="191" height="118" viewBox="0 0 191 118" fill="none" xmlns="http://www.w3.org/2000/svg">
<rect x="0.5" y="0.5" width="190" height="116.088" fill="white" stroke="black"/>
<rect x="0.497656" y="0.502333" width="26.2178" height="3.60428" rx="1.80214" transform="matrix(-0.00467664 0.999989 0.999989 0.00467664 93.8766 87.8185)" fill="#BEBEBE" fill-opacity="0.7" stroke="black"/>
<circle cx="95.8661" cy="51.9578" r="35.3582" stroke="black" stroke-opacity="0.7"/>
<path d="M80.7187 33.9925L81.5664 33.9935C81.8763 33.9938 82.1563 33.9499 82.4064 33.8616C82.6565 33.7733 82.8702 33.6499 83.0474 33.4912C83.2221 33.3352 83.3564 33.1491 83.4504 32.9331C83.547 32.7171 83.5954 32.4814 83.5957 32.2262C83.596 31.9528 83.5481 31.704 83.452 31.48C83.3585 31.2559 83.2247 31.063 83.0504 30.9014C82.8735 30.7423 82.6601 30.6184 82.4102 30.5296C82.1603 30.4381 81.8804 30.3923 81.5705 30.3919L79.6252 30.3897L79.6187 36.0772L80.7164 36.0784L80.7187 33.9925ZM80.7197 33.1019L80.7218 31.2816L81.5695 31.2825C81.7257 31.2827 81.8611 31.3076 81.9756 31.3572C82.0901 31.4068 82.1864 31.4746 82.2645 31.5607C82.3399 31.6467 82.3958 31.747 82.4321 31.8616C82.471 31.9763 82.4904 32.1 82.4903 32.2328C82.4901 32.3474 82.4705 32.458 82.4313 32.5648C82.3947 32.6689 82.3386 32.7613 82.263 32.8419C82.1848 32.9225 82.0884 32.9862 81.9737 33.033C81.8591 33.0797 81.7236 33.103 81.5674 33.1028L80.7197 33.1019ZM87.4322 31.7814C87.1483 31.781 86.8865 31.8497 86.6468 31.9875C86.407 32.1226 86.2011 32.3099 86.029 32.5493L86.0213 32.4555L85.979 31.8578L84.9672 31.8567L84.9625 36.0832L86.0484 36.0845L86.0513 33.5454C86.1009 33.4257 86.1635 33.3216 86.2391 33.2331C86.3147 33.1447 86.406 33.0719 86.5128 33.0147C86.6014 32.9653 86.7017 32.929 86.8137 32.9057C86.9283 32.8797 87.0559 32.8669 87.1966 32.867C87.332 32.8672 87.4739 32.8765 87.6223 32.8949C87.7733 32.9106 87.9204 32.9356 88.0636 32.9696L88.225 31.8877C88.1391 31.8616 88.0259 31.838 87.8853 31.817C87.7473 31.7934 87.5962 31.7815 87.4322 31.7814ZM89.0508 33.9355L89.0507 34.0176C89.0504 34.3275 89.0943 34.614 89.1826 34.8771C89.2708 35.1376 89.4008 35.3643 89.5724 35.5572C89.7415 35.7501 89.9496 35.9014 90.1969 36.0111C90.4468 36.1181 90.7306 36.1718 91.0483 36.1722C91.3634 36.1725 91.6447 36.1195 91.8922 36.013C92.1397 35.9039 92.3482 35.7531 92.5177 35.5606C92.6872 35.368 92.8164 35.1416 92.9052 34.8813C92.9941 34.6184 93.0387 34.332 93.039 34.0221L93.0391 33.9401C93.0395 33.6328 92.9955 33.3489 92.9073 33.0883C92.819 32.8252 92.6904 32.5972 92.5213 32.4043C92.3497 32.2114 92.1402 32.0601 91.8929 31.9505C91.6457 31.8408 91.3632 31.7858 91.0455 31.7855C90.7277 31.7851 90.4451 31.8395 90.1976 31.9486C89.9527 32.0577 89.7455 32.2085 89.576 32.401C89.4039 32.5935 89.2734 32.8212 89.1846 33.0841C89.0958 33.3444 89.0512 33.6282 89.0508 33.9355ZM90.1367 34.0188L90.1368 33.9368C90.137 33.7649 90.1541 33.6022 90.1881 33.4485C90.2221 33.2949 90.2757 33.1596 90.3487 33.0425C90.4218 32.9254 90.5156 32.833 90.6303 32.7654C90.7449 32.6979 90.883 32.6642 91.0445 32.6644C91.2085 32.6645 91.3478 32.6986 91.4623 32.7664C91.5768 32.8342 91.6705 32.9268 91.7432 33.0441C91.8134 33.1613 91.8654 33.2968 91.899 33.4505C91.9327 33.6042 91.9495 33.7669 91.9493 33.9388L91.9492 34.0209C91.949 34.1979 91.9319 34.3646 91.8978 34.5208C91.8638 34.6744 91.8116 34.8085 91.7411 34.923C91.6681 35.0401 91.5742 35.1324 91.4596 35.2C91.3449 35.2676 91.2081 35.3013 91.0493 35.3011C90.8852 35.3009 90.7446 35.2669 90.6275 35.199C90.513 35.1312 90.4194 35.0386 90.3466 34.9214C90.2738 34.8067 90.2206 34.6725 90.1869 34.5189C90.1532 34.3626 90.1365 34.1959 90.1367 34.0188ZM93.8907 33.9488L93.8906 34.0309C93.8902 34.3382 93.9277 34.6234 94.0029 34.8865C94.0781 35.147 94.1872 35.3723 94.3302 35.5626C94.4706 35.7529 94.6424 35.9028 94.8454 36.0124C95.051 36.1194 95.2827 36.1731 95.5405 36.1734C95.7775 36.1736 95.9858 36.1283 96.1656 36.0373C96.3454 35.9464 96.5018 35.819 96.6348 35.6551L96.689 36.0965L97.6695 36.0976L97.6763 30.0977L96.5864 30.0964L96.584 32.2488C96.454 32.1028 96.3043 31.9906 96.1352 31.9123C95.9686 31.8314 95.7746 31.7908 95.5533 31.7906C95.2902 31.7903 95.0558 31.8421 94.85 31.946C94.6467 32.0499 94.4734 32.1969 94.3299 32.3868C94.1865 32.5768 94.0769 32.8045 94.001 33.0701C93.9278 33.3356 93.891 33.6285 93.8907 33.9488ZM94.9765 34.0321L94.9766 33.9501C94.9768 33.773 94.9926 33.6076 95.024 33.454C95.0555 33.2978 95.1051 33.1611 95.1729 33.044C95.2408 32.9295 95.3281 32.8398 95.435 32.7748C95.5444 32.7072 95.676 32.6735 95.8296 32.6737C96.0145 32.6739 96.1681 32.7144 96.2904 32.7953C96.4127 32.8736 96.5102 32.9844 96.583 33.1277L96.5811 34.8386C96.508 34.9791 96.4089 35.0897 96.2838 35.1703C96.1613 35.2509 96.0063 35.2911 95.8188 35.2909C95.6652 35.2907 95.535 35.258 95.4283 35.1928C95.3216 35.1275 95.2345 35.0376 95.1669 34.9229C95.0993 34.8109 95.05 34.6793 95.0189 34.5282C94.9904 34.3746 94.9763 34.2092 94.9765 34.0321ZM101.564 36.1021L102.548 36.1032L102.553 31.8766L101.463 31.8754L101.46 34.8402C101.426 34.9079 101.386 34.969 101.339 35.0237C101.292 35.0783 101.238 35.1251 101.178 35.1641C101.108 35.2083 101.026 35.2421 100.932 35.2654C100.841 35.2887 100.738 35.3003 100.624 35.3002C100.496 35.3001 100.388 35.2843 100.299 35.253C100.211 35.2216 100.139 35.1695 100.085 35.0965C100.03 35.0261 99.9898 34.9323 99.9639 34.8151C99.9406 34.6979 99.929 34.5533 99.9292 34.3815L99.9321 31.8736L98.8461 31.8724L98.8433 34.3724C98.8429 34.6927 98.8778 34.9675 98.9478 35.1968C99.0205 35.4234 99.1219 35.6097 99.2519 35.7557C99.3819 35.9043 99.5381 36.0125 99.7203 36.0804C99.9025 36.1484 100.103 36.1824 100.322 36.1827C100.561 36.183 100.781 36.1233 100.982 36.0037C101.185 35.8842 101.359 35.719 101.502 35.5082L101.564 36.1021ZM105.483 35.3174C105.308 35.3172 105.164 35.2819 105.049 35.2115C104.937 35.141 104.849 35.0472 104.784 34.9299C104.717 34.8153 104.67 34.6824 104.644 34.5313C104.618 34.3777 104.605 34.2188 104.605 34.0547L104.606 33.9375C104.606 33.7761 104.619 33.6198 104.645 33.4688C104.674 33.3178 104.722 33.1838 104.79 33.0667C104.855 32.9495 104.944 32.8559 105.056 32.7857C105.168 32.7155 105.31 32.6805 105.482 32.6807C105.599 32.6809 105.707 32.7018 105.806 32.7436C105.905 32.7828 105.99 32.8362 106.06 32.904C106.13 32.9718 106.183 33.0526 106.22 33.1464C106.256 33.2402 106.272 33.3392 106.266 33.4433L107.29 33.4445C107.295 33.1945 107.254 32.9692 107.165 32.7686C107.077 32.5653 106.954 32.392 106.795 32.2486C106.634 32.1078 106.442 31.9982 106.221 31.9198C106 31.8415 105.759 31.8021 105.499 31.8018C105.173 31.8015 104.887 31.8571 104.639 31.9688C104.394 32.0805 104.188 32.2326 104.021 32.4252C103.854 32.6177 103.729 32.8441 103.646 33.1044C103.562 33.3621 103.52 33.6394 103.52 33.9363L103.519 34.0535C103.519 34.3504 103.56 34.6291 103.644 34.8896C103.729 35.1475 103.855 35.3729 104.022 35.5658C104.185 35.7587 104.391 35.9113 104.638 36.0235C104.886 36.1332 105.173 36.1882 105.501 36.1886C105.744 36.1888 105.973 36.1513 106.189 36.0761C106.408 35.9982 106.599 35.8916 106.764 35.7564C106.928 35.6212 107.057 35.4598 107.151 35.2725C107.247 35.0851 107.293 34.882 107.288 34.6632L106.265 34.6621C106.27 34.761 106.252 34.8509 106.21 34.9315C106.171 35.0122 106.115 35.0812 106.042 35.1384C105.969 35.1956 105.884 35.2398 105.788 35.2709C105.691 35.3021 105.59 35.3176 105.483 35.3174ZM110.414 30.8504L109.328 30.8491L109.327 31.8843L108.362 31.8832L108.361 32.684L109.326 32.6851L109.324 34.6069C109.323 34.8856 109.359 35.1252 109.432 35.3258C109.505 35.5238 109.609 35.6867 109.744 35.8145C109.877 35.9448 110.037 36.0414 110.224 36.1041C110.414 36.1642 110.625 36.1944 110.857 36.1946C110.977 36.1948 111.098 36.1884 111.22 36.1755C111.345 36.1652 111.465 36.1497 111.58 36.129C111.694 36.1083 111.802 36.0824 111.904 36.0513C112.006 36.0175 112.094 35.9786 112.17 35.9344L112.065 35.1882C112.016 35.2011 111.956 35.2141 111.885 35.227C111.818 35.24 111.745 35.2516 111.667 35.2619C111.586 35.2749 111.501 35.2852 111.413 35.2929C111.327 35.3006 111.242 35.3044 111.159 35.3043C111.044 35.3042 110.94 35.2911 110.846 35.2649C110.755 35.2388 110.677 35.1944 110.612 35.1318C110.547 35.0719 110.496 34.9911 110.46 34.8895C110.426 34.7853 110.409 34.6564 110.41 34.5027L110.412 32.6863L111.99 32.6881L111.991 31.8873L110.413 31.8855L110.414 30.8504Z" fill="black"/>
<path d="M82.8654 41.3146L81.5021 41.3131L81.4957 47.0006L82.5035 47.0017L82.5054 45.3181L82.4614 42.7634L83.1267 45.1274L83.6697 45.128L84.4185 42.6601L84.3687 45.3202L84.3668 47.0038L85.3746 47.005L85.381 41.3175L84.0177 41.3159L83.402 43.4519L82.8654 41.3146ZM88.9957 47.0091L90.0972 47.0103L90.0973 46.9439C90.0427 46.8371 90.0012 46.7094 89.9727 46.5609C89.9442 46.4125 89.9301 46.225 89.9304 45.9984L89.9324 44.1859C89.9327 43.9411 89.8874 43.7262 89.7965 43.5412C89.7055 43.3536 89.5794 43.1985 89.4181 43.0759C89.2568 42.9534 89.0655 42.8607 88.8442 42.7979C88.6255 42.7352 88.3886 42.7037 88.1333 42.7034C87.8495 42.7031 87.5968 42.7392 87.3754 42.8119C87.1566 42.882 86.9716 42.9781 86.8204 43.1003C86.6666 43.2226 86.5493 43.3644 86.4684 43.5257C86.39 43.6871 86.3508 43.8576 86.3506 44.0373L87.4365 44.0385C87.4366 43.963 87.4471 43.894 87.468 43.8315C87.4915 43.7691 87.5267 43.7157 87.5737 43.6715C87.6258 43.6221 87.6935 43.5844 87.7769 43.5585C87.8603 43.5299 87.9592 43.5157 88.0738 43.5158C88.204 43.516 88.3173 43.533 88.4136 43.567C88.5125 43.5983 88.5945 43.644 88.6596 43.704C88.722 43.7613 88.7688 43.8304 88.7999 43.9112C88.8311 43.9893 88.8466 44.0779 88.8465 44.1769L88.8462 44.4269L88.2408 44.4262C87.9283 44.4258 87.6509 44.4541 87.4086 44.5112C87.169 44.5656 86.9671 44.6461 86.8029 44.7527C86.6205 44.8696 86.4836 45.0192 86.3922 45.2014C86.3009 45.381 86.2551 45.588 86.2548 45.8224C86.2546 46.0046 86.2909 46.174 86.3636 46.3303C86.4364 46.484 86.5378 46.6169 86.6678 46.7291C86.7979 46.8412 86.9528 46.9286 87.1324 46.9913C87.3146 47.054 87.5138 47.0855 87.7299 47.0857C87.8628 47.0859 87.9865 47.073 88.1011 47.0471C88.2157 47.0238 88.3212 46.9901 88.4176 46.9459C88.5114 46.9043 88.5974 46.855 88.6756 46.7978C88.7538 46.7406 88.8229 46.6794 88.8828 46.6144C88.8958 46.6899 88.9113 46.7616 88.9295 46.8293C88.9476 46.897 88.9697 46.9569 88.9957 47.0091ZM87.9614 46.2462C87.8598 46.246 87.77 46.2342 87.6919 46.2107C87.6164 46.1846 87.5526 46.1506 87.5006 46.1089C87.4485 46.0646 87.4082 46.0112 87.3797 45.9486C87.3537 45.8835 87.3408 45.8132 87.3408 45.7376C87.341 45.6413 87.3593 45.5528 87.3958 45.4721C87.4324 45.3888 87.4885 45.3172 87.564 45.2574C87.6396 45.2002 87.7373 45.1561 87.8572 45.125C87.977 45.0912 88.1215 45.0745 88.2908 45.0747L88.8455 45.0753L88.8447 45.8019C88.8134 45.8565 88.7703 45.9111 88.7156 45.9658C88.6608 46.0178 88.5957 46.0646 88.5201 46.1062C88.4445 46.1478 88.3599 46.1815 88.2661 46.2074C88.1723 46.2334 88.0707 46.2463 87.9614 46.2462ZM94.1997 42.7103C93.9159 42.7099 93.6541 42.7787 93.4144 42.9164C93.1746 43.0515 92.9687 43.2388 92.7965 43.4782L92.7888 43.3844L92.7465 42.7867L91.7348 42.7856L91.73 47.0122L92.816 47.0134L92.8188 44.4743C92.8685 44.3546 92.9311 44.2505 93.0067 44.162C93.0823 44.0736 93.1735 44.0008 93.2804 43.9436C93.369 43.8942 93.4693 43.8579 93.5813 43.8346C93.6959 43.8087 93.8235 43.7958 93.9641 43.7959C94.0996 43.7961 94.2415 43.8054 94.3899 43.8238C94.5409 43.8396 94.688 43.8645 94.8312 43.8985L94.9926 42.8166C94.9067 42.7905 94.7934 42.7669 94.6528 42.7459C94.5148 42.7223 94.3638 42.7104 94.1997 42.7103ZM97.5562 45.2727L98.7535 47.0201L100.085 47.0216L98.2719 44.5547L99.8676 42.7948L98.5629 42.7933L97.3935 44.0733L97.065 44.4479L97.0689 41.0182L95.9829 41.017L95.9761 47.017L97.0621 47.0182L97.0635 45.7291L97.5562 45.2727ZM102.82 47.1028C103.229 47.1033 103.583 47.0243 103.883 46.8658C104.182 46.7073 104.401 46.5304 104.539 46.3353L103.997 45.7487C103.872 45.91 103.709 46.0309 103.508 46.1114C103.308 46.1919 103.101 46.2321 102.887 46.2318C102.736 46.2317 102.597 46.2081 102.469 46.161C102.342 46.114 102.229 46.0475 102.13 45.9614C102.033 45.878 101.957 45.7855 101.9 45.6838C101.842 45.5796 101.796 45.4428 101.759 45.2735L101.759 45.2618L104.627 45.265L104.627 44.8041C104.627 44.4942 104.585 44.2116 104.499 43.9563C104.413 43.6984 104.289 43.4782 104.125 43.2957C103.958 43.1132 103.755 42.9724 103.516 42.8732C103.279 42.7713 103.008 42.7202 102.704 42.7199C102.409 42.7196 102.137 42.7726 101.887 42.8791C101.637 42.9856 101.421 43.1351 101.238 43.3276C101.056 43.5201 100.913 43.7504 100.812 44.0185C100.71 44.284 100.659 44.5783 100.658 44.9012L100.658 45.0574C100.658 45.3413 100.708 45.6083 100.809 45.8584C100.913 46.1059 101.06 46.3209 101.25 46.5034C101.44 46.6885 101.668 46.8346 101.933 46.9417C102.199 47.0488 102.494 47.1025 102.82 47.1028ZM102.695 43.5988C102.833 43.599 102.954 43.6212 103.058 43.6656C103.165 43.7074 103.255 43.7648 103.327 43.8378C103.4 43.9134 103.457 44.002 103.499 44.1036C103.541 44.2052 103.561 44.3133 103.561 44.4279L103.561 44.5138L101.78 44.5118C101.806 44.3738 101.845 44.2489 101.897 44.137C101.95 44.025 102.015 43.9288 102.093 43.8481C102.169 43.7675 102.257 43.7064 102.359 43.6648C102.46 43.6207 102.572 43.5987 102.695 43.5988ZM107.572 41.7684L106.486 41.7672L106.485 42.8023L105.52 42.8012L105.519 43.602L106.484 43.6031L106.482 45.525C106.481 45.8036 106.518 46.0432 106.59 46.2438C106.663 46.4418 106.767 46.6047 106.902 46.7325C107.035 46.8628 107.195 46.9594 107.382 47.0221C107.572 47.0822 107.783 47.1124 108.015 47.1126C108.135 47.1128 108.256 47.1064 108.378 47.0935C108.503 47.0832 108.623 47.0678 108.738 47.0471C108.852 47.0263 108.961 47.0004 109.062 46.9693C109.164 46.9356 109.252 46.8966 109.328 46.8524L109.223 46.1062C109.174 46.1192 109.114 46.1321 109.044 46.1451C108.976 46.158 108.903 46.1696 108.825 46.18C108.744 46.1929 108.659 46.2032 108.571 46.2109C108.485 46.2186 108.4 46.2225 108.317 46.2224C108.202 46.2222 108.098 46.2091 108.004 46.1829C107.913 46.1568 107.835 46.1124 107.77 46.0499C107.705 45.9899 107.654 45.9091 107.618 45.8075C107.584 45.7033 107.568 45.5744 107.568 45.4207L107.57 43.6043L109.148 43.6061L109.149 42.8053L107.571 42.8035L107.572 41.7684Z" fill="black"/>
<path d="M85.8433 68.0021L86.9605 68.0033L88.6896 62.3178L87.4787 62.3164L86.5057 66.0263L86.3998 66.4129L86.3026 66.0299L85.3419 62.314L84.131 62.3126L85.8433 68.0021ZM91.9996 68.0091L93.1011 68.0103L93.1012 67.9439C93.0466 67.8371 93.0051 67.7094 92.9766 67.5609C92.9482 67.4125 92.934 67.225 92.9343 66.9984L92.9364 65.1859C92.9366 64.9411 92.8913 64.7262 92.8004 64.5412C92.7094 64.3536 92.5833 64.1985 92.422 64.0759C92.2607 63.9534 92.0694 63.8607 91.8481 63.7979C91.6294 63.7352 91.3925 63.7037 91.1373 63.7034C90.8534 63.7031 90.6008 63.7392 90.3793 63.8119C90.1605 63.882 89.9755 63.9781 89.8243 64.1003C89.6705 64.2226 89.5532 64.3644 89.4723 64.5257C89.3939 64.6871 89.3547 64.8576 89.3545 65.0373L90.4404 65.0385C90.4405 64.963 90.451 64.894 90.4719 64.8315C90.4954 64.7691 90.5306 64.7157 90.5776 64.6715C90.6297 64.6221 90.6975 64.5844 90.7808 64.5585C90.8642 64.5299 90.9632 64.5157 91.0777 64.5158C91.2079 64.516 91.3212 64.533 91.4175 64.567C91.5164 64.5983 91.5984 64.644 91.6635 64.704C91.7259 64.7613 91.7727 64.8304 91.8039 64.9112C91.835 64.9893 91.8505 65.0779 91.8504 65.1769L91.8501 65.4269L91.2447 65.4262C90.9322 65.4258 90.6548 65.4541 90.4125 65.5112C90.1729 65.5656 89.971 65.6461 89.8068 65.7527C89.6244 65.8696 89.4875 66.0192 89.3961 66.2014C89.3048 66.381 89.259 66.588 89.2587 66.8224C89.2585 67.0046 89.2948 67.174 89.3675 67.3303C89.4403 67.484 89.5417 67.6169 89.6718 67.7291C89.8018 67.8412 89.9567 67.9286 90.1363 67.9913C90.3185 68.054 90.5177 68.0855 90.7338 68.0857C90.8667 68.0859 90.9904 68.073 91.105 68.0471C91.2196 68.0238 91.3251 67.9901 91.4215 67.9459C91.5153 67.9043 91.6013 67.855 91.6795 67.7978C91.7577 67.7406 91.8268 67.6794 91.8867 67.6144C91.8997 67.6899 91.9152 67.7616 91.9334 67.8293C91.9515 67.897 91.9736 67.9569 91.9996 68.0091ZM90.9653 67.2462C90.8637 67.246 90.7739 67.2342 90.6958 67.2107C90.6203 67.1846 90.5565 67.1506 90.5045 67.1089C90.4525 67.0646 90.4121 67.0112 90.3836 66.9486C90.3576 66.8835 90.3447 66.8132 90.3448 66.7376C90.3449 66.6413 90.3632 66.5528 90.3997 66.4721C90.4363 66.3888 90.4924 66.3172 90.568 66.2574C90.6435 66.2002 90.7412 66.1561 90.8611 66.125C90.9809 66.0912 91.1255 66.0745 91.2947 66.0747L91.8494 66.0753L91.8486 66.8019C91.8173 66.8565 91.7742 66.9111 91.7195 66.9658C91.6647 67.0178 91.5996 67.0646 91.524 67.1062C91.4485 67.1478 91.3638 67.1815 91.27 67.2074C91.1762 67.2334 91.0746 67.2463 90.9653 67.2462ZM94.397 62.0118L94.396 62.8985L95.6616 62.8999L95.6568 67.1304L94.3912 67.129L94.3902 68.0118L97.9644 68.0158L97.9654 67.133L96.7545 67.1316L96.7603 62.0144L94.397 62.0118ZM101.726 68.0201L102.71 68.0212L102.715 63.7946L101.625 63.7934L101.622 66.7582C101.588 66.8259 101.548 66.8871 101.501 66.9417C101.454 66.9963 101.4 67.0431 101.34 67.0821C101.27 67.1263 101.188 67.1601 101.094 67.1834C101.003 67.2068 100.9 67.2184 100.786 67.2182C100.658 67.2181 100.55 67.2023 100.461 67.171C100.373 67.1396 100.301 67.0875 100.247 67.0145C100.192 66.9441 100.152 66.8503 100.126 66.7331C100.103 66.6159 100.091 66.4713 100.091 66.2995L100.094 63.7917L99.0083 63.7904L99.0054 66.2904C99.0051 66.6107 99.0399 66.8855 99.11 67.1148C99.1826 67.3414 99.284 67.5277 99.414 67.6737C99.544 67.8223 99.7002 67.9305 99.8824 67.9985C100.065 68.0664 100.265 68.1005 100.484 68.1007C100.723 68.101 100.944 68.0413 101.144 67.9218C101.347 67.8022 101.521 67.637 101.664 67.4263L101.726 68.0201ZM105.824 68.1028C106.233 68.1033 106.587 68.0243 106.886 67.8658C107.186 67.7073 107.405 67.5304 107.543 67.3353L107.001 66.7487C106.876 66.91 106.713 67.0309 106.512 67.1114C106.312 67.1919 106.105 67.2321 105.891 67.2318C105.74 67.2317 105.601 67.2081 105.473 67.161C105.346 67.114 105.232 67.0475 105.134 66.9614C105.037 66.878 104.961 66.7855 104.903 66.6838C104.846 66.5796 104.8 66.4428 104.763 66.2735L104.763 66.2618L107.63 66.265L107.631 65.8041C107.631 65.4942 107.589 65.2116 107.503 64.9563C107.417 64.6984 107.293 64.4782 107.129 64.2957C106.962 64.1132 106.759 63.9724 106.52 63.8732C106.283 63.7713 106.012 63.7202 105.708 63.7199C105.413 63.7196 105.141 63.7726 104.891 63.8791C104.641 63.9856 104.425 64.1351 104.242 64.3276C104.06 64.5201 103.917 64.7504 103.815 65.0185C103.714 65.284 103.662 65.5783 103.662 65.9012L103.662 66.0574C103.662 66.3413 103.712 66.6083 103.813 66.8584C103.917 67.1059 104.064 67.3209 104.254 67.5034C104.444 67.6885 104.672 67.8346 104.937 67.9417C105.203 68.0488 105.498 68.1025 105.824 68.1028ZM105.699 64.5988C105.837 64.599 105.958 64.6212 106.062 64.6656C106.169 64.7074 106.258 64.7648 106.331 64.8378C106.404 64.9134 106.461 65.002 106.503 65.1036C106.544 65.2052 106.565 65.3133 106.565 65.4279L106.565 65.5138L104.784 65.5118C104.81 65.3738 104.849 65.2489 104.901 65.137C104.953 65.025 105.019 64.9288 105.097 64.8481C105.173 64.7675 105.261 64.7064 105.363 64.6648C105.464 64.6207 105.576 64.5987 105.699 64.5988Z" fill="black"/>
<path d="M83.4645 56.2238L82.3668 56.2226C82.3562 56.3944 82.3274 56.5415 82.2804 56.6639C82.2334 56.7862 82.1695 56.8864 82.0886 56.9644C82.0078 57.0425 81.9101 57.0996 81.7955 57.136C81.6808 57.1723 81.5519 57.1904 81.4087 57.1902C81.3019 57.1901 81.2043 57.1783 81.1158 57.1547C81.0299 57.1286 80.9518 57.0894 80.8815 57.0373C80.8165 56.9903 80.7579 56.9317 80.7059 56.8613C80.6565 56.7909 80.6137 56.7102 80.5773 56.619C80.5254 56.4861 80.4865 56.3311 80.4606 56.154C80.4374 55.9743 80.4259 55.7711 80.4262 55.5446L80.4271 54.7711C80.4272 54.6045 80.4352 54.4495 80.451 54.3063C80.4668 54.1605 80.4917 54.0277 80.5257 53.908C80.5701 53.7544 80.6289 53.6203 80.7019 53.5058C80.7776 53.3887 80.8688 53.299 80.9757 53.2366C81.0382 53.2002 81.1059 53.1729 81.1789 53.1548C81.2544 53.1367 81.3352 53.1276 81.4211 53.1277C81.5826 53.1279 81.7206 53.1502 81.8351 53.1946C81.9522 53.2364 82.0498 53.299 82.1278 53.3824C82.2033 53.4685 82.2604 53.5753 82.2994 53.7029C82.3409 53.8306 82.3668 53.9791 82.377 54.1483L83.4707 54.1496C83.445 53.8527 83.3828 53.5857 83.2841 53.3486C83.1854 53.1115 83.0503 52.9108 82.8786 52.7466C82.7069 52.5823 82.4987 52.4558 82.254 52.367C82.0119 52.2781 81.7346 52.2336 81.4221 52.2332C81.2112 52.233 81.0132 52.2601 80.8283 52.3146C80.6459 52.3664 80.4779 52.4418 80.3241 52.5406C80.1521 52.6575 79.9983 52.8006 79.8627 52.9697C79.7271 53.1388 79.6175 53.3314 79.5339 53.5475C79.4608 53.7245 79.4059 53.9171 79.3692 54.1254C79.3325 54.3311 79.314 54.5485 79.3138 54.7777L79.3129 55.5433C79.3126 55.7881 79.3319 56.0199 79.3707 56.2387C79.4121 56.4575 79.4705 56.6581 79.5458 56.8405C79.6237 57.0228 79.7186 57.1896 79.8304 57.3408C79.9448 57.4919 80.0749 57.621 80.2206 57.7279C80.3793 57.8427 80.5576 57.9314 80.7554 57.9942C80.9559 58.0543 81.1733 58.0845 81.4077 58.0848C81.7045 58.0851 81.9754 58.0424 82.2203 57.9568C82.4652 57.8685 82.6763 57.7437 82.8536 57.5825C83.0308 57.4212 83.1717 57.2261 83.2761 56.997C83.3831 56.768 83.4459 56.5102 83.4645 56.2238ZM84.5903 52.0063L84.5893 52.893L85.855 52.8945L85.8502 57.1249L84.5845 57.1235L84.5835 58.0063L88.1578 58.0104L88.1588 57.1276L86.9478 57.1262L86.9536 52.009L84.5903 52.0063ZM89.4555 53.7853L89.4545 54.672L90.6576 54.6734L90.6549 57.1304L89.4517 57.129L89.4507 58.0118L92.896 58.0157L92.897 57.1329L91.7525 57.1316L91.7563 53.7879L89.4555 53.7853ZM90.5817 52.7045C90.5817 52.7879 90.5959 52.866 90.6244 52.9389C90.6556 53.0093 90.6985 53.0692 90.7532 53.1188C90.8078 53.1709 90.8728 53.2114 90.9483 53.2401C91.0264 53.2688 91.1123 53.2832 91.2061 53.2834C91.3988 53.2836 91.5512 53.2304 91.6633 53.1237C91.778 53.0145 91.8355 52.8752 91.8357 52.7059C91.8358 52.5367 91.7787 52.3986 91.6642 52.2917C91.5524 52.1822 91.4001 52.1273 91.2074 52.1271C91.1137 52.127 91.0277 52.1412 90.9495 52.1698C90.874 52.1983 90.8088 52.2373 90.7541 52.2867C90.6993 52.3388 90.6563 52.4012 90.625 52.4741C90.5963 52.5444 90.5818 52.6212 90.5817 52.7045ZM96.017 58.0974C96.4259 58.0979 96.7802 58.0188 97.0798 57.8603C97.3795 57.7018 97.5984 57.525 97.7367 57.3298L97.1944 56.7433C97.0692 56.9046 96.9063 57.0255 96.7057 57.106C96.5051 57.1865 96.298 57.2266 96.0844 57.2264C95.9334 57.2262 95.7941 57.2026 95.6665 57.1556C95.539 57.1086 95.4258 57.042 95.3269 56.956C95.2307 56.8726 95.154 56.78 95.0968 56.6784C95.0396 56.5742 94.9929 56.4374 94.9566 56.2681L94.9566 56.2564L97.8238 56.2596L97.8243 55.7987C97.8247 55.4888 97.782 55.2062 97.6964 54.9509C97.6107 54.693 97.486 54.4728 97.3221 54.2903C97.1557 54.1078 96.9527 53.9669 96.7132 53.8677C96.4764 53.7659 96.2056 53.7148 95.9009 53.7145C95.6066 53.7141 95.3345 53.7672 95.0843 53.8737C94.8342 53.9802 94.6179 54.1297 94.4354 54.3222C94.2529 54.5147 94.1107 54.745 94.0088 55.0131C93.907 55.2786 93.8558 55.5728 93.8555 55.8957L93.8553 56.052C93.855 56.3358 93.9055 56.6028 94.0067 56.8529C94.1106 57.1004 94.2575 57.3155 94.4474 57.498C94.6373 57.6831 94.865 57.8292 95.1305 57.9362C95.396 58.0433 95.6915 58.097 96.017 58.0974ZM95.8921 54.5934C96.0301 54.5935 96.1512 54.6158 96.2553 54.6602C96.362 54.702 96.4518 54.7594 96.5247 54.8324C96.5975 54.908 96.6547 54.9966 96.6962 55.0982C96.7378 55.1998 96.7585 55.3079 96.7584 55.4225L96.7583 55.5084L94.977 55.5064C95.0032 55.3684 95.0424 55.2434 95.0946 55.1315C95.1468 55.0196 95.212 54.9233 95.2903 54.8427C95.3659 54.762 95.4545 54.7009 95.5561 54.6594C95.6577 54.6152 95.7697 54.5932 95.8921 54.5934ZM98.771 58.0224L99.8609 58.0236L99.8643 55.0197C99.9008 54.9625 99.9412 54.9104 99.9856 54.8636C100.03 54.8168 100.079 54.7765 100.134 54.7427C100.202 54.6959 100.279 54.6608 100.365 54.6375C100.453 54.6141 100.55 54.6025 100.654 54.6027C100.779 54.6028 100.891 54.6159 100.99 54.6421C101.089 54.6656 101.173 54.7087 101.243 54.7713C101.314 54.8339 101.367 54.9199 101.403 55.0293C101.442 55.1361 101.462 55.2728 101.461 55.4395L101.459 58.0254L102.544 58.0267L102.547 55.4251C102.548 55.1178 102.512 54.8574 102.439 54.6437C102.369 54.4275 102.27 54.2503 102.143 54.1122C102.013 53.9766 101.859 53.8775 101.682 53.8148C101.505 53.7521 101.31 53.7206 101.096 53.7203C100.93 53.7202 100.772 53.7434 100.623 53.7901C100.475 53.8368 100.338 53.9044 100.213 53.9928C100.14 54.0448 100.071 54.1033 100.006 54.1683C99.9407 54.2334 99.8807 54.3049 99.8259 54.383L99.7602 53.797L98.7758 53.7958L98.771 58.0224ZM105.574 52.7684L104.488 52.7672L104.487 53.8023L103.522 53.8012L103.521 54.602L104.486 54.6031L104.484 56.525C104.483 56.8036 104.52 57.0432 104.592 57.2438C104.665 57.4418 104.769 57.6047 104.904 57.7325C105.037 57.8628 105.197 57.9594 105.384 58.0221C105.574 58.0822 105.785 58.1124 106.017 58.1126C106.137 58.1128 106.258 58.1064 106.38 58.0935C106.505 58.0832 106.625 58.0678 106.74 58.0471C106.854 58.0263 106.962 58.0004 107.064 57.9693C107.166 57.9356 107.254 57.8966 107.33 57.8524L107.225 57.1062C107.176 57.1192 107.116 57.1321 107.045 57.1451C106.978 57.158 106.905 57.1696 106.827 57.18C106.746 57.1929 106.661 57.2032 106.573 57.2109C106.487 57.2186 106.402 57.2225 106.319 57.2224C106.204 57.2222 106.1 57.2091 106.006 57.1829C105.915 57.1568 105.837 57.1124 105.772 57.0499C105.707 56.9899 105.656 56.9091 105.62 56.8075C105.586 56.7033 105.57 56.5744 105.57 56.4207L105.572 54.6043L107.15 54.6061L107.151 53.8053L105.573 53.8035L105.574 52.7684ZM111.108 56.8762C111.108 56.9413 111.091 57.0012 111.057 57.0559C111.026 57.1105 110.978 57.1586 110.913 57.2002C110.845 57.2418 110.758 57.2756 110.651 57.3015C110.547 57.3248 110.424 57.3364 110.284 57.3362C110.166 57.3361 110.052 57.3242 109.94 57.3007C109.83 57.2771 109.733 57.2392 109.647 57.1871C109.561 57.1375 109.491 57.0723 109.436 56.9915C109.382 56.9081 109.351 56.8091 109.343 56.6945L108.308 56.6934C108.308 56.8652 108.349 57.0372 108.432 57.2091C108.518 57.3785 108.643 57.5297 108.807 57.6627C108.971 57.7983 109.174 57.9079 109.416 57.9915C109.66 58.0751 109.942 58.1171 110.259 58.1174C110.548 58.1178 110.81 58.0868 111.044 58.0246C111.279 57.9597 111.48 57.8701 111.646 57.7557C111.811 57.6413 111.937 57.5061 112.026 57.3499C112.117 57.1912 112.163 57.018 112.163 56.8305C112.163 56.6274 112.118 56.4529 112.027 56.307C111.939 56.1584 111.815 56.032 111.656 55.9276C111.497 55.8259 111.309 55.7423 111.09 55.677C110.871 55.6116 110.635 55.558 110.379 55.516C110.202 55.4898 110.057 55.4597 109.942 55.4257C109.827 55.3891 109.738 55.3486 109.673 55.3043C109.605 55.2625 109.558 55.2156 109.532 55.1635C109.506 55.1088 109.493 55.0502 109.493 54.9877C109.493 54.9252 109.508 54.8666 109.536 54.8119C109.568 54.7547 109.612 54.7053 109.669 54.6637C109.732 54.6168 109.813 54.5805 109.912 54.5546C110.011 54.5286 110.127 54.5157 110.259 54.5159C110.416 54.5161 110.548 54.5357 110.658 54.5749C110.77 54.6141 110.858 54.6663 110.923 54.7315C110.97 54.781 111.005 54.837 111.028 54.8996C111.052 54.9595 111.064 55.0246 111.063 55.0949L112.149 55.0962C112.15 54.9008 112.107 54.7198 112.021 54.553C111.935 54.3863 111.812 54.2416 111.65 54.119C111.487 53.999 111.287 53.9051 111.053 53.8371C110.819 53.7665 110.555 53.7311 110.26 53.7307C109.979 53.7304 109.726 53.7653 109.502 53.8353C109.278 53.9054 109.088 54.0002 108.932 54.1198C108.775 54.2395 108.655 54.3786 108.572 54.5374C108.488 54.6962 108.446 54.8628 108.446 55.0373C108.446 55.217 108.486 55.3759 108.567 55.514C108.65 55.6521 108.764 55.7733 108.91 55.8776C109.056 55.9846 109.23 56.0759 109.433 56.1517C109.639 56.2248 109.865 56.2863 110.113 56.336C110.308 56.3727 110.469 56.4094 110.597 56.446C110.725 56.4826 110.827 56.5217 110.906 56.5635C110.981 56.6078 111.033 56.6548 111.062 56.7043C111.093 56.7538 111.108 56.8111 111.108 56.8762Z" fill="black"/>
</svg>
