<svg width="288" height="492" viewBox="0 0 288 492" fill="none" xmlns="http://www.w3.org/2000/svg">
<g filter="url(#filter0_d_392_744)">
<path d="M4 0H284V483.535H4V0Z" fill="white"/>
</g>
<rect x="4" width="280" height="53.4293" fill="#393E46" fill-opacity="0.7"/>
<path d="M28.4371 30.5C28.4371 34.8933 24.6712 38.5 19.9685 38.5C15.2659 38.5 11.5 34.8933 11.5 30.5C11.5 26.1067 15.2659 22.5 19.9685 22.5C24.6712 22.5 28.4371 26.1067 28.4371 30.5Z" fill="#F15252" stroke="#0E0D0D"/>
<path d="M49.9605 30.5C49.9605 34.8933 46.1946 38.5 41.492 38.5C36.7893 38.5 33.0234 34.8933 33.0234 30.5C33.0234 26.1067 36.7893 22.5 41.492 22.5C46.1946 22.5 49.9605 26.1067 49.9605 30.5Z" fill="#F3F736" stroke="black"/>
<path d="M71.4859 30.5C71.4859 34.8933 67.72 38.5 63.0174 38.5C58.3147 38.5 54.5488 34.8933 54.5488 30.5C54.5488 26.1067 58.3147 22.5 63.0174 22.5C67.72 22.5 71.4859 26.1067 71.4859 30.5Z" fill="#38ED60" stroke="black"/>
<defs>
<filter id="filter0_d_392_744" x="0" y="0" width="288" height="491.535" filterUnits="userSpaceOnUse" color-interpolation-filters="sRGB">
<feFlood flood-opacity="0" result="BackgroundImageFix"/>
<feColorMatrix in="SourceAlpha" type="matrix" values="0 0 0 0 0 0 0 0 0 0 0 0 0 0 0 0 0 0 127 0" result="hardAlpha"/>
<feOffset dy="4"/>
<feGaussianBlur stdDeviation="2"/>
<feComposite in2="hardAlpha" operator="out"/>
<feColorMatrix type="matrix" values="0 0 0 0 0 0 0 0 0 0 0 0 0 0 0 0 0 0 0.25 0"/>
<feBlend mode="normal" in2="BackgroundImageFix" result="effect1_dropShadow_392_744"/>
<feBlend mode="normal" in="SourceGraphic" in2="effect1_dropShadow_392_744" result="shape"/>
</filter>
</defs>
</svg>
