<svg width="383" height="208" viewBox="0 0 383 208" fill="none" xmlns="http://www.w3.org/2000/svg">
<rect x="14.6611" y="0.5" width="352.752" height="207" fill="white" stroke="#707379"/>
<rect x="29.3213" y="26.2737" width="325.115" height="32.8421" fill="#A3A5AA" fill-opacity="0.7"/>
<path d="M167.684 49V38.3359H160.55V49H162.608V40.0059H165.626V49H167.684ZM169.735 52.0469H171.771V48.3115C171.864 48.4141 171.961 48.5068 172.064 48.5898C172.166 48.6729 172.274 48.7485 172.386 48.8169C172.577 48.9243 172.782 49.0049 173.001 49.0586C173.226 49.1172 173.47 49.1465 173.734 49.1465C174.232 49.1465 174.674 49.0439 175.059 48.8389C175.445 48.6338 175.77 48.3506 176.034 47.9893C176.292 47.6328 176.488 47.208 176.62 46.7148C176.756 46.2217 176.825 45.687 176.825 45.1108V44.957C176.825 44.3564 176.756 43.8096 176.62 43.3164C176.488 42.8184 176.29 42.3911 176.026 42.0347C175.763 41.6831 175.438 41.4121 175.052 41.2217C174.666 41.0264 174.222 40.9287 173.719 40.9287C173.475 40.9287 173.246 40.9556 173.031 41.0093C172.821 41.0581 172.628 41.1289 172.452 41.2217C172.306 41.2998 172.169 41.3926 172.042 41.5C171.915 41.6025 171.798 41.7197 171.69 41.8516L171.617 41.0752H169.735V52.0469ZM174.788 44.957V45.1108C174.788 45.438 174.759 45.748 174.701 46.041C174.642 46.3291 174.549 46.583 174.422 46.8027C174.295 47.0225 174.129 47.1958 173.924 47.3228C173.724 47.4497 173.48 47.5132 173.192 47.5132C173.011 47.5132 172.848 47.4961 172.701 47.4619C172.555 47.4229 172.425 47.3691 172.313 47.3008C172.196 47.2275 172.091 47.1396 171.998 47.0371C171.91 46.9346 171.834 46.8198 171.771 46.6929V43.3823C171.839 43.2456 171.92 43.126 172.013 43.0234C172.11 42.9209 172.223 42.8354 172.35 42.7671C172.462 42.7085 172.586 42.6646 172.723 42.6353C172.86 42.6011 173.011 42.584 173.177 42.584C173.465 42.584 173.709 42.645 173.91 42.7671C174.115 42.8892 174.283 43.0552 174.415 43.2651C174.542 43.48 174.635 43.7339 174.693 44.0269C174.757 44.3149 174.788 44.625 174.788 44.957ZM178.436 44.9644V45.1182C178.436 45.6992 178.519 46.2363 178.685 46.7295C178.851 47.2178 179.095 47.6426 179.417 48.0039C179.735 48.3652 180.125 48.6484 180.589 48.8535C181.058 49.0537 181.59 49.1538 182.186 49.1538C182.777 49.1538 183.304 49.0537 183.768 48.8535C184.232 48.6484 184.622 48.3652 184.94 48.0039C185.257 47.6426 185.499 47.2178 185.665 46.7295C185.831 46.2363 185.914 45.6992 185.914 45.1182V44.9644C185.914 44.3882 185.831 43.856 185.665 43.3677C185.499 42.8745 185.257 42.4473 184.94 42.0859C184.618 41.7246 184.225 41.4414 183.761 41.2363C183.297 41.0312 182.767 40.9287 182.171 40.9287C181.576 40.9287 181.046 41.0312 180.582 41.2363C180.123 41.4414 179.735 41.7246 179.417 42.0859C179.095 42.4473 178.851 42.8745 178.685 43.3677C178.519 43.856 178.436 44.3882 178.436 44.9644ZM180.472 45.1182V44.9644C180.472 44.6421 180.504 44.3369 180.567 44.0488C180.631 43.7607 180.731 43.5068 180.868 43.2871C181.004 43.0674 181.18 42.894 181.395 42.7671C181.61 42.6401 181.869 42.5767 182.171 42.5767C182.479 42.5767 182.74 42.6401 182.955 42.7671C183.17 42.894 183.346 43.0674 183.482 43.2871C183.614 43.5068 183.712 43.7607 183.775 44.0488C183.839 44.3369 183.871 44.6421 183.871 44.9644V45.1182C183.871 45.4502 183.839 45.7627 183.775 46.0557C183.712 46.3438 183.614 46.5952 183.482 46.8101C183.346 47.0298 183.17 47.2031 182.955 47.3301C182.74 47.457 182.484 47.5205 182.186 47.5205C181.878 47.5205 181.615 47.457 181.395 47.3301C181.18 47.2031 181.004 47.0298 180.868 46.8101C180.731 46.5952 180.631 46.3438 180.567 46.0557C180.504 45.7627 180.472 45.4502 180.472 45.1182ZM191.568 49.1465C192.335 49.1465 192.999 48.9976 193.56 48.6997C194.122 48.4019 194.532 48.0698 194.791 47.7036L193.773 46.605C193.538 46.9077 193.233 47.1348 192.857 47.2861C192.481 47.4375 192.093 47.5132 191.693 47.5132C191.41 47.5132 191.148 47.4692 190.909 47.3813C190.67 47.2935 190.457 47.1689 190.272 47.0078C190.091 46.8516 189.947 46.6782 189.84 46.4878C189.732 46.2925 189.644 46.0361 189.576 45.7188V45.6968H194.952V44.8325C194.952 44.2515 194.871 43.7217 194.71 43.2432C194.549 42.7598 194.315 42.3472 194.007 42.0054C193.695 41.6636 193.314 41.3999 192.865 41.2144C192.42 41.0239 191.913 40.9287 191.341 40.9287C190.789 40.9287 190.279 41.0288 189.81 41.229C189.342 41.4292 188.936 41.71 188.595 42.0713C188.253 42.4326 187.987 42.8647 187.796 43.3677C187.606 43.8657 187.511 44.4175 187.511 45.0229V45.3159C187.511 45.8481 187.606 46.3486 187.796 46.8174C187.992 47.2812 188.267 47.6841 188.624 48.0259C188.98 48.3726 189.408 48.646 189.906 48.8462C190.404 49.0464 190.958 49.1465 191.568 49.1465ZM191.327 42.5767C191.585 42.5767 191.812 42.6182 192.008 42.7012C192.208 42.7793 192.376 42.8867 192.513 43.0234C192.65 43.165 192.757 43.3311 192.835 43.5215C192.913 43.7119 192.953 43.9146 192.953 44.1294V44.2905H189.613C189.662 44.0317 189.735 43.7974 189.832 43.5874C189.93 43.3774 190.052 43.1968 190.199 43.0454C190.34 42.894 190.506 42.7793 190.697 42.7012C190.887 42.6182 191.097 42.5767 191.327 42.5767ZM199.903 46.0337L201.998 49H204.693L201.551 44.8911L204.459 41.0752H201.895L199.764 44.1074H198.709V41.0752H196.673V49H198.709V46.0337H199.903ZM213.512 42.7085V41.0752H205.389V42.7085H208.414V49H210.457V42.7085H213.512ZM227.296 42.1592L225.428 38.3359H223.026L226.021 43.624L222.945 49H225.377L227.325 45.1182L229.281 49H231.683L228.607 43.624L231.61 38.3359H229.193L227.296 42.1592Z" fill="white"/>
<rect x="29" y="64" width="95" height="9" fill="#1969E8"/>
<rect x="144" y="64" width="95" height="9" fill="#1969E8"/>
<rect x="259" y="64" width="95" height="9" fill="#1969E8"/>
<rect x="144" y="78" width="95" height="25" fill="#1969E8" fill-opacity="0.5"/>
<rect x="29" y="107" width="95" height="25" fill="#1969E8" fill-opacity="0.5"/>
<rect x="29" y="137" width="95" height="25" fill="#1969E8" fill-opacity="0.5"/>
<path d="M148 91.2912C149.632 90.9633 151.023 89.9551 152.385 89.2149C153.003 88.8788 153.171 88.9232 153.484 89.4456C154.093 90.4627 154.241 92.3678 156.041 92.3678C157.256 92.3678 159.916 89.7155 160.828 90.8298C161.245 91.3395 161.535 91.9485 162.101 92.3678C162.871 92.9388 163.835 91.7748 164.299 91.4109C164.397 91.3341 166.279 89.8175 166.399 90.1463C166.653 90.8461 166.546 91.5059 166.997 92.214C168.103 93.9505 171.094 90.6615 172.568 90.9922C173.198 91.1335 172.805 93.295 174.167 92.966C175.428 92.6612 176.294 91.6488 177.529 91.3254C178.378 91.1031 178.207 92.0284 178.595 92.3337C180.574 93.8872 183.349 91.5521 184.884 90.6248C185.323 90.3595 186.396 89.5096 186.68 90.2232C186.919 90.8247 187.144 91.6348 187.659 92.1286C188.865 93.2865 190.891 90.6164 192.163 90.8384C192.527 90.9019 192.456 91.3796 192.577 91.5903C192.835 92.0412 193.322 92.0602 193.871 92.0602C194.6 92.0602 194.977 91.9787 195.591 91.6843C195.88 91.5453 196.418 91.3357 196.766 91.4792C197.372 91.73 197.065 92.3678 197.952 92.3678C199.046 92.3678 200.379 92.1949 201.422 92.4875C202.165 92.6957 202.484 92.9804 203.413 92.7524C204.231 92.5517 204.085 93.0471 204.806 92.8293C206.353 92.3621 208.357 92.7611 209.974 92.5302C211.245 92.3487 212.708 92.5216 214 92.5216" stroke="black" stroke-linecap="square"/>
<path d="M33 120.291C34.6321 119.963 36.0234 118.955 37.3848 118.215C38.0029 117.879 38.1706 117.923 38.4837 118.446C39.0932 119.463 39.2414 121.368 41.0406 121.368C42.256 121.368 44.9157 118.715 45.8279 119.83C46.2451 120.34 46.5354 120.948 47.1009 121.368C47.8708 121.939 48.8353 120.775 49.2987 120.411C49.3965 120.334 51.279 118.817 51.3986 119.146C51.6532 119.846 51.5462 120.506 51.997 121.214C53.1026 122.95 56.0939 119.661 57.5678 119.992C58.1978 120.134 57.8055 122.295 59.1672 121.966C60.4282 121.661 61.2937 120.649 62.5292 120.325C63.3783 120.103 63.2068 121.028 63.5955 121.334C65.5736 122.887 68.3491 120.552 69.8843 119.625C70.3233 119.36 71.3956 118.51 71.6795 119.223C71.9189 119.825 72.1443 120.635 72.6588 121.129C73.8651 122.286 75.8912 119.616 77.1632 119.838C77.5273 119.902 77.456 120.38 77.5767 120.59C77.835 121.041 78.3224 121.06 78.8714 121.06C79.5998 121.06 79.9769 120.979 80.5905 120.684C80.8801 120.545 81.4185 120.336 81.7656 120.479C82.3723 120.73 82.0654 121.368 82.9515 121.368C84.0464 121.368 85.3791 121.195 86.4224 121.487C87.1649 121.696 87.4843 121.98 88.4135 121.752C89.2309 121.552 89.085 122.047 89.8061 121.829C91.3527 121.362 93.3572 121.761 94.9743 121.53C96.2454 121.349 97.7078 121.522 99 121.522" stroke="black" stroke-linecap="square"/>
<path d="M33 148.291C34.6321 147.963 36.0234 146.955 37.3848 146.215C38.0029 145.879 38.1706 145.923 38.4837 146.446C39.0932 147.463 39.2414 149.368 41.0406 149.368C42.256 149.368 44.9157 146.715 45.8279 147.83C46.2451 148.34 46.5354 148.948 47.1009 149.368C47.8708 149.939 48.8353 148.775 49.2987 148.411C49.3965 148.334 51.279 146.817 51.3986 147.146C51.6532 147.846 51.5462 148.506 51.997 149.214C53.1026 150.95 56.0939 147.661 57.5678 147.992C58.1978 148.134 57.8055 150.295 59.1672 149.966C60.4282 149.661 61.2937 148.649 62.5292 148.325C63.3783 148.103 63.2068 149.028 63.5955 149.334C65.5736 150.887 68.3491 148.552 69.8843 147.625C70.3233 147.36 71.3956 146.51 71.6795 147.223C71.9189 147.825 72.1443 148.635 72.6588 149.129C73.8651 150.286 75.8912 147.616 77.1632 147.838C77.5273 147.902 77.456 148.38 77.5767 148.59C77.835 149.041 78.3224 149.06 78.8714 149.06C79.5998 149.06 79.9769 148.979 80.5905 148.684C80.8801 148.545 81.4185 148.336 81.7656 148.479C82.3723 148.73 82.0654 149.368 82.9515 149.368C84.0464 149.368 85.3791 149.195 86.4224 149.487C87.1649 149.696 87.4843 149.98 88.4135 149.752C89.2309 149.552 89.085 150.047 89.8061 149.829C91.3527 149.362 93.3572 149.761 94.9743 149.53C96.2454 149.349 97.7078 149.522 99 149.522" stroke="black" stroke-linecap="square"/>
<rect x="29" y="77" width="95" height="25" fill="#1969E8" fill-opacity="0.5"/>
<path d="M33 89.2912C34.6321 88.9633 36.0234 87.9551 37.3848 87.2149C38.0029 86.8788 38.1706 86.9232 38.4837 87.4456C39.0932 88.4627 39.2414 90.3678 41.0406 90.3678C42.256 90.3678 44.9157 87.7155 45.8279 88.8298C46.2451 89.3395 46.5354 89.9485 47.1009 90.3678C47.8708 90.9388 48.8353 89.7748 49.2987 89.4109C49.3965 89.3341 51.279 87.8175 51.3986 88.1463C51.6532 88.8461 51.5462 89.5059 51.997 90.214C53.1026 91.9505 56.0939 88.6615 57.5678 88.9922C58.1978 89.1335 57.8055 91.295 59.1672 90.966C60.4282 90.6612 61.2937 89.6488 62.5292 89.3254C63.3783 89.1031 63.2068 90.0284 63.5955 90.3337C65.5736 91.8872 68.3491 89.5521 69.8843 88.6248C70.3233 88.3595 71.3956 87.5096 71.6795 88.2232C71.9189 88.8247 72.1443 89.6348 72.6588 90.1286C73.8651 91.2865 75.8912 88.6164 77.1632 88.8384C77.5273 88.9019 77.456 89.3796 77.5767 89.5903C77.835 90.0412 78.3224 90.0602 78.8714 90.0602C79.5998 90.0602 79.9769 89.9787 80.5905 89.6843C80.8801 89.5453 81.4185 89.3357 81.7656 89.4792C82.3723 89.73 82.0654 90.3678 82.9515 90.3678C84.0464 90.3678 85.3791 90.1949 86.4224 90.4875C87.1649 90.6957 87.4843 90.9804 88.4135 90.7524C89.2309 90.5517 89.085 91.0471 89.8061 90.8293C91.3527 90.3621 93.3572 90.7611 94.9743 90.5302C96.2454 90.3487 97.7078 90.5216 99 90.5216" stroke="black" stroke-linecap="square"/>
<circle cx="112.5" cy="89.5" r="7.5" fill="#A4D9F8"/>
<path d="M111.326 90.6104H112.703C113.207 90.6104 113.662 90.5384 114.068 90.3945C114.474 90.2507 114.821 90.0496 115.109 89.7915C115.392 89.5376 115.61 89.235 115.763 88.8838C115.919 88.5326 115.998 88.1496 115.998 87.7349C115.998 87.2905 115.919 86.8864 115.763 86.5225C115.61 86.1585 115.392 85.8454 115.109 85.583C114.821 85.3249 114.474 85.1239 114.068 84.98C113.662 84.8319 113.207 84.7578 112.703 84.7578H109.542V94H111.326V90.6104ZM111.326 89.1631V86.2051H112.703C112.957 86.2051 113.177 86.2453 113.363 86.3257C113.549 86.4061 113.706 86.5161 113.833 86.6558C113.956 86.7954 114.047 86.9583 114.106 87.1445C114.169 87.3307 114.201 87.5317 114.201 87.7476C114.201 87.9338 114.169 88.1136 114.106 88.2871C114.047 88.4564 113.956 88.6066 113.833 88.7378C113.706 88.869 113.549 88.9727 113.363 89.0488C113.177 89.125 112.957 89.1631 112.703 89.1631H111.326Z" fill="black"/>
<rect x="259" y="77" width="95" height="25" fill="#1969E8" fill-opacity="0.5"/>
<path d="M263 89.2912C264.632 88.9633 266.023 87.9551 267.385 87.2149C268.003 86.8788 268.171 86.9232 268.484 87.4456C269.093 88.4627 269.241 90.3678 271.041 90.3678C272.256 90.3678 274.916 87.7155 275.828 88.8298C276.245 89.3395 276.535 89.9485 277.101 90.3678C277.871 90.9388 278.835 89.7748 279.299 89.4109C279.397 89.3341 281.279 87.8175 281.399 88.1463C281.653 88.8461 281.546 89.5059 281.997 90.214C283.103 91.9505 286.094 88.6615 287.568 88.9922C288.198 89.1335 287.805 91.295 289.167 90.966C290.428 90.6612 291.294 89.6488 292.529 89.3254C293.378 89.1031 293.207 90.0284 293.595 90.3337C295.574 91.8872 298.349 89.5521 299.884 88.6248C300.323 88.3595 301.396 87.5096 301.68 88.2232C301.919 88.8247 302.144 89.6348 302.659 90.1286C303.865 91.2865 305.891 88.6164 307.163 88.8384C307.527 88.9019 307.456 89.3796 307.577 89.5903C307.835 90.0412 308.322 90.0602 308.871 90.0602C309.6 90.0602 309.977 89.9787 310.591 89.6843C310.88 89.5453 311.418 89.3357 311.766 89.4792C312.372 89.73 312.065 90.3678 312.952 90.3678C314.046 90.3678 315.379 90.1949 316.422 90.4875C317.165 90.6957 317.484 90.9804 318.413 90.7524C319.231 90.5517 319.085 91.0471 319.806 90.8293C321.353 90.3621 323.357 90.7611 324.974 90.5302C326.245 90.3487 327.708 90.5216 329 90.5216" stroke="black" stroke-linecap="square"/>
<circle cx="342.5" cy="89.5" r="7.5" fill="#A4D9F8"/>
<path d="M341.326 90.6104H342.703C343.207 90.6104 343.662 90.5384 344.068 90.3945C344.474 90.2507 344.821 90.0496 345.109 89.7915C345.392 89.5376 345.61 89.235 345.763 88.8838C345.919 88.5326 345.998 88.1496 345.998 87.7349C345.998 87.2905 345.919 86.8864 345.763 86.5225C345.61 86.1585 345.392 85.8454 345.109 85.583C344.821 85.3249 344.474 85.1239 344.068 84.98C343.662 84.8319 343.207 84.7578 342.703 84.7578H339.542V94H341.326V90.6104ZM341.326 89.1631V86.2051H342.703C342.957 86.2051 343.177 86.2453 343.363 86.3257C343.549 86.4061 343.706 86.5161 343.833 86.6558C343.956 86.7954 344.047 86.9583 344.106 87.1445C344.169 87.3307 344.201 87.5317 344.201 87.7476C344.201 87.9338 344.169 88.1136 344.106 88.2871C344.047 88.4564 343.956 88.6066 343.833 88.7378C343.706 88.869 343.549 88.9727 343.363 89.0488C343.177 89.125 342.957 89.1631 342.703 89.1631H341.326Z" fill="black"/>
<rect x="259" y="107" width="95" height="25" fill="#1969E8" fill-opacity="0.5"/>
<path d="M263 119.291C264.632 118.963 266.023 117.955 267.385 117.215C268.003 116.879 268.171 116.923 268.484 117.446C269.093 118.463 269.241 120.368 271.041 120.368C272.256 120.368 274.916 117.715 275.828 118.83C276.245 119.34 276.535 119.948 277.101 120.368C277.871 120.939 278.835 119.775 279.299 119.411C279.397 119.334 281.279 117.817 281.399 118.146C281.653 118.846 281.546 119.506 281.997 120.214C283.103 121.95 286.094 118.661 287.568 118.992C288.198 119.134 287.805 121.295 289.167 120.966C290.428 120.661 291.294 119.649 292.529 119.325C293.378 119.103 293.207 120.028 293.595 120.334C295.574 121.887 298.349 119.552 299.884 118.625C300.323 118.36 301.396 117.51 301.68 118.223C301.919 118.825 302.144 119.635 302.659 120.129C303.865 121.286 305.891 118.616 307.163 118.838C307.527 118.902 307.456 119.38 307.577 119.59C307.835 120.041 308.322 120.06 308.871 120.06C309.6 120.06 309.977 119.979 310.591 119.684C310.88 119.545 311.418 119.336 311.766 119.479C312.372 119.73 312.065 120.368 312.952 120.368C314.046 120.368 315.379 120.195 316.422 120.487C317.165 120.696 317.484 120.98 318.413 120.752C319.231 120.552 319.085 121.047 319.806 120.829C321.353 120.362 323.357 120.761 324.974 120.53C326.245 120.349 327.708 120.522 329 120.522" stroke="black" stroke-linecap="square"/>
<circle cx="342.5" cy="119.5" r="7.5" fill="#A4D9F8"/>
<path d="M341.326 120.61H342.703C343.207 120.61 343.662 120.538 344.068 120.395C344.474 120.251 344.821 120.05 345.109 119.792C345.392 119.538 345.61 119.235 345.763 118.884C345.919 118.533 345.998 118.15 345.998 117.735C345.998 117.291 345.919 116.886 345.763 116.522C345.61 116.159 345.392 115.845 345.109 115.583C344.821 115.325 344.474 115.124 344.068 114.98C343.662 114.832 343.207 114.758 342.703 114.758H339.542V124H341.326V120.61ZM341.326 119.163V116.205H342.703C342.957 116.205 343.177 116.245 343.363 116.326C343.549 116.406 343.706 116.516 343.833 116.656C343.956 116.795 344.047 116.958 344.106 117.145C344.169 117.331 344.201 117.532 344.201 117.748C344.201 117.934 344.169 118.114 344.106 118.287C344.047 118.456 343.956 118.607 343.833 118.738C343.706 118.869 343.549 118.973 343.363 119.049C343.177 119.125 342.957 119.163 342.703 119.163H341.326Z" fill="black"/>
<rect x="259" y="136" width="95" height="25" fill="#1969E8" fill-opacity="0.5"/>
<path d="M263 148.291C264.632 147.963 266.023 146.955 267.385 146.215C268.003 145.879 268.171 145.923 268.484 146.446C269.093 147.463 269.241 149.368 271.041 149.368C272.256 149.368 274.916 146.715 275.828 147.83C276.245 148.34 276.535 148.948 277.101 149.368C277.871 149.939 278.835 148.775 279.299 148.411C279.397 148.334 281.279 146.817 281.399 147.146C281.653 147.846 281.546 148.506 281.997 149.214C283.103 150.95 286.094 147.661 287.568 147.992C288.198 148.134 287.805 150.295 289.167 149.966C290.428 149.661 291.294 148.649 292.529 148.325C293.378 148.103 293.207 149.028 293.595 149.334C295.574 150.887 298.349 148.552 299.884 147.625C300.323 147.36 301.396 146.51 301.68 147.223C301.919 147.825 302.144 148.635 302.659 149.129C303.865 150.286 305.891 147.616 307.163 147.838C307.527 147.902 307.456 148.38 307.577 148.59C307.835 149.041 308.322 149.06 308.871 149.06C309.6 149.06 309.977 148.979 310.591 148.684C310.88 148.545 311.418 148.336 311.766 148.479C312.372 148.73 312.065 149.368 312.952 149.368C314.046 149.368 315.379 149.195 316.422 149.487C317.165 149.696 317.484 149.98 318.413 149.752C319.231 149.552 319.085 150.047 319.806 149.829C321.353 149.362 323.357 149.761 324.974 149.53C326.245 149.349 327.708 149.522 329 149.522" stroke="black" stroke-linecap="square"/>
<circle cx="342.5" cy="148.5" r="7.5" fill="#A4D9F8"/>
<path d="M341.326 149.61H342.703C343.207 149.61 343.662 149.538 344.068 149.395C344.474 149.251 344.821 149.05 345.109 148.792C345.392 148.538 345.61 148.235 345.763 147.884C345.919 147.533 345.998 147.15 345.998 146.735C345.998 146.291 345.919 145.886 345.763 145.522C345.61 145.159 345.392 144.845 345.109 144.583C344.821 144.325 344.474 144.124 344.068 143.98C343.662 143.832 343.207 143.758 342.703 143.758H339.542V153H341.326V149.61ZM341.326 148.163V145.205H342.703C342.957 145.205 343.177 145.245 343.363 145.326C343.549 145.406 343.706 145.516 343.833 145.656C343.956 145.795 344.047 145.958 344.106 146.145C344.169 146.331 344.201 146.532 344.201 146.748C344.201 146.934 344.169 147.114 344.106 147.287C344.047 147.456 343.956 147.607 343.833 147.738C343.706 147.869 343.549 147.973 343.363 148.049C343.177 148.125 342.957 148.163 342.703 148.163H341.326Z" fill="black"/>
<circle cx="112.5" cy="119.5" r="7.5" fill="#A6F8A4"/>
<path d="M111.326 120.61H112.703C113.207 120.61 113.662 120.538 114.068 120.395C114.474 120.251 114.821 120.05 115.109 119.792C115.392 119.538 115.61 119.235 115.763 118.884C115.919 118.533 115.998 118.15 115.998 117.735C115.998 117.291 115.919 116.886 115.763 116.522C115.61 116.159 115.392 115.845 115.109 115.583C114.821 115.325 114.474 115.124 114.068 114.98C113.662 114.832 113.207 114.758 112.703 114.758H109.542V124H111.326V120.61ZM111.326 119.163V116.205H112.703C112.957 116.205 113.177 116.245 113.363 116.326C113.549 116.406 113.706 116.516 113.833 116.656C113.956 116.795 114.047 116.958 114.106 117.145C114.169 117.331 114.201 117.532 114.201 117.748C114.201 117.934 114.169 118.114 114.106 118.287C114.047 118.456 113.956 118.607 113.833 118.738C113.706 118.869 113.549 118.973 113.363 119.049C113.177 119.125 112.957 119.163 112.703 119.163H111.326Z" fill="black"/>
<circle cx="227.5" cy="91.5" r="7.5" fill="#A6F8A4"/>
<path d="M226.326 92.6104H227.703C228.207 92.6104 228.662 92.5384 229.068 92.3945C229.474 92.2507 229.821 92.0496 230.109 91.7915C230.392 91.5376 230.61 91.235 230.763 90.8838C230.919 90.5326 230.998 90.1496 230.998 89.7349C230.998 89.2905 230.919 88.8864 230.763 88.5225C230.61 88.1585 230.392 87.8454 230.109 87.583C229.821 87.3249 229.474 87.1239 229.068 86.98C228.662 86.8319 228.207 86.7578 227.703 86.7578H224.542V96H226.326V92.6104ZM226.326 91.1631V88.2051H227.703C227.957 88.2051 228.177 88.2453 228.363 88.3257C228.549 88.4061 228.706 88.5161 228.833 88.6558C228.956 88.7954 229.047 88.9583 229.106 89.1445C229.169 89.3307 229.201 89.5317 229.201 89.7476C229.201 89.9338 229.169 90.1136 229.106 90.2871C229.047 90.4564 228.956 90.6066 228.833 90.7378C228.706 90.869 228.549 90.9727 228.363 91.0488C228.177 91.125 227.957 91.1631 227.703 91.1631H226.326Z" fill="black"/>
<circle cx="111.5" cy="149.5" r="7.5" fill="#E4C5EC"/>
<path d="M110.326 150.61H111.703C112.207 150.61 112.662 150.538 113.068 150.395C113.474 150.251 113.821 150.05 114.109 149.792C114.392 149.538 114.61 149.235 114.763 148.884C114.919 148.533 114.998 148.15 114.998 147.735C114.998 147.291 114.919 146.886 114.763 146.522C114.61 146.159 114.392 145.845 114.109 145.583C113.821 145.325 113.474 145.124 113.068 144.98C112.662 144.832 112.207 144.758 111.703 144.758H108.542V154H110.326V150.61ZM110.326 149.163V146.205H111.703C111.957 146.205 112.177 146.245 112.363 146.326C112.549 146.406 112.706 146.516 112.833 146.656C112.956 146.795 113.047 146.958 113.106 147.145C113.169 147.331 113.201 147.532 113.201 147.748C113.201 147.934 113.169 148.114 113.106 148.287C113.047 148.456 112.956 148.607 112.833 148.738C112.706 148.869 112.549 148.973 112.363 149.049C112.177 149.125 111.957 149.163 111.703 149.163H110.326Z" fill="black"/>
</svg>
