<svg width="256" height="139" viewBox="0 0 256 139" fill="none" xmlns="http://www.w3.org/2000/svg">
<rect x="9.96289" y="0.5" width="235.402" height="138" fill="white" stroke="#707379"/>
<rect x="19.5938" y="17.5579" width="217.265" height="21.9474" fill="#A3A5AA" fill-opacity="0.7"/>
<path d="M107.394 33V23.7578H101.211V33H102.995V25.2051H105.61V33H107.394ZM109.171 35.6406H110.936V32.4033C111.016 32.4922 111.101 32.5726 111.189 32.6445C111.278 32.7165 111.371 32.7821 111.469 32.8413C111.634 32.9344 111.812 33.0042 112.002 33.0508C112.197 33.1016 112.408 33.127 112.637 33.127C113.068 33.127 113.451 33.0381 113.786 32.8604C114.12 32.6826 114.401 32.4372 114.63 32.124C114.854 31.8151 115.023 31.4469 115.138 31.0195C115.256 30.5921 115.315 30.1287 115.315 29.6294V29.4961C115.315 28.9756 115.256 28.5016 115.138 28.0742C115.023 27.6426 114.852 27.2723 114.624 26.9634C114.395 26.6587 114.114 26.4238 113.779 26.2588C113.445 26.0895 113.06 26.0049 112.624 26.0049C112.412 26.0049 112.214 26.0282 112.027 26.0747C111.845 26.117 111.678 26.1784 111.526 26.2588C111.399 26.3265 111.28 26.4069 111.17 26.5C111.06 26.5889 110.959 26.6904 110.866 26.8047L110.802 26.1318H109.171V35.6406ZM113.551 29.4961V29.6294C113.551 29.9129 113.525 30.1816 113.475 30.4355C113.424 30.6852 113.343 30.9053 113.233 31.0957C113.123 31.2861 112.98 31.4364 112.802 31.5464C112.628 31.6564 112.417 31.7114 112.167 31.7114C112.01 31.7114 111.869 31.6966 111.742 31.667C111.615 31.6331 111.503 31.5866 111.405 31.5273C111.304 31.4639 111.213 31.3877 111.132 31.2988C111.056 31.21 110.991 31.1105 110.936 31.0005V28.1313C110.995 28.0129 111.065 27.9092 111.145 27.8203C111.23 27.7314 111.327 27.6574 111.437 27.5981C111.534 27.5474 111.642 27.5093 111.761 27.4839C111.879 27.4543 112.01 27.4395 112.154 27.4395C112.404 27.4395 112.616 27.4924 112.789 27.5981C112.967 27.7039 113.113 27.8478 113.227 28.0298C113.337 28.216 113.418 28.436 113.468 28.6899C113.523 28.9396 113.551 29.2083 113.551 29.4961ZM116.712 29.5024V29.6357C116.712 30.1393 116.784 30.6048 116.928 31.0322C117.072 31.4554 117.283 31.8236 117.563 32.1367C117.838 32.4499 118.176 32.6953 118.578 32.873C118.984 33.0465 119.446 33.1333 119.962 33.1333C120.474 33.1333 120.931 33.0465 121.333 32.873C121.735 32.6953 122.074 32.4499 122.349 32.1367C122.624 31.8236 122.833 31.4554 122.977 31.0322C123.121 30.6048 123.193 30.1393 123.193 29.6357V29.5024C123.193 29.0031 123.121 28.5418 122.977 28.1187C122.833 27.6912 122.624 27.321 122.349 27.0078C122.069 26.6947 121.729 26.4492 121.327 26.2715C120.925 26.0938 120.466 26.0049 119.949 26.0049C119.433 26.0049 118.974 26.0938 118.572 26.2715C118.174 26.4492 117.838 26.6947 117.563 27.0078C117.283 27.321 117.072 27.6912 116.928 28.1187C116.784 28.5418 116.712 29.0031 116.712 29.5024ZM118.477 29.6357V29.5024C118.477 29.2231 118.504 28.9587 118.559 28.709C118.614 28.4593 118.701 28.2393 118.819 28.0488C118.938 27.8584 119.09 27.7082 119.276 27.5981C119.463 27.4881 119.687 27.4331 119.949 27.4331C120.216 27.4331 120.442 27.4881 120.628 27.5981C120.815 27.7082 120.967 27.8584 121.085 28.0488C121.2 28.2393 121.284 28.4593 121.339 28.709C121.394 28.9587 121.422 29.2231 121.422 29.5024V29.6357C121.422 29.9235 121.394 30.1943 121.339 30.4482C121.284 30.6979 121.2 30.9159 121.085 31.1021C120.967 31.2925 120.815 31.4427 120.628 31.5527C120.442 31.6628 120.22 31.7178 119.962 31.7178C119.695 31.7178 119.467 31.6628 119.276 31.5527C119.09 31.4427 118.938 31.2925 118.819 31.1021C118.701 30.9159 118.614 30.6979 118.559 30.4482C118.504 30.1943 118.477 29.9235 118.477 29.6357ZM128.093 33.127C128.758 33.127 129.333 32.9979 129.82 32.7397C130.307 32.4816 130.662 32.1938 130.886 31.8765L130.004 30.9243C129.801 31.1867 129.536 31.3835 129.21 31.5146C128.885 31.6458 128.548 31.7114 128.201 31.7114C127.956 31.7114 127.729 31.6733 127.522 31.5972C127.315 31.521 127.131 31.4131 126.97 31.2734C126.813 31.138 126.688 30.9878 126.595 30.8228C126.502 30.6535 126.426 30.4313 126.367 30.1562V30.1372H131.026V29.3882C131.026 28.8846 130.956 28.4255 130.816 28.0107C130.677 27.5918 130.474 27.2342 130.207 26.938C129.936 26.6418 129.606 26.4132 129.217 26.2524C128.832 26.0874 128.392 26.0049 127.897 26.0049C127.418 26.0049 126.976 26.0916 126.57 26.2651C126.164 26.4386 125.812 26.682 125.516 26.9951C125.22 27.3083 124.989 27.6828 124.824 28.1187C124.659 28.5503 124.577 29.0285 124.577 29.5532V29.8071C124.577 30.2684 124.659 30.7021 124.824 31.1084C124.994 31.5104 125.233 31.8595 125.542 32.1558C125.85 32.4562 126.221 32.6932 126.652 32.8667C127.084 33.0402 127.564 33.127 128.093 33.127ZM127.884 27.4331C128.108 27.4331 128.305 27.4691 128.474 27.541C128.648 27.6087 128.794 27.7018 128.912 27.8203C129.031 27.943 129.124 28.0869 129.191 28.252C129.259 28.417 129.293 28.5926 129.293 28.7788V28.9185H126.398C126.441 28.6942 126.504 28.491 126.589 28.3091C126.674 28.1271 126.779 27.9705 126.906 27.8394C127.029 27.7082 127.173 27.6087 127.338 27.541C127.503 27.4691 127.685 27.4331 127.884 27.4331ZM135.317 30.4292L137.132 33H139.468L136.745 29.439L139.265 26.1318H137.043L135.196 28.7598H134.282V26.1318H132.518V33H134.282V30.4292H135.317ZM147.111 27.5474V26.1318H140.071V27.5474H142.693V33H144.464V27.5474H147.111ZM159.057 27.0713L157.439 23.7578H155.356L157.953 28.3408L155.287 33H157.394L159.083 29.6357L160.777 33H162.859L160.193 28.3408L162.796 23.7578H160.701L159.057 27.0713Z" fill="white"/>
<rect x="19.3789" y="42.7693" width="63.4856" height="6.01442" fill="#1969E8"/>
<rect x="96.2305" y="42.7693" width="63.4856" height="6.01442" fill="#1969E8"/>
<rect x="173.082" y="42.7693" width="63.4856" height="6.01442" fill="#1969E8"/>
<rect x="96.2305" y="52.125" width="63.4856" height="16.7067" fill="#1969E8" fill-opacity="0.5"/>
<rect x="19.3789" y="71.5048" width="63.4856" height="16.7067" fill="#1969E8" fill-opacity="0.5"/>
<rect x="19.3789" y="91.5529" width="63.4856" height="16.7067" fill="#1969E8" fill-opacity="0.5"/>
<path d="M98.9043 61.0071C99.995 60.788 100.925 60.1142 101.835 59.6196C102.248 59.395 102.36 59.4246 102.569 59.7737C102.976 60.4534 103.075 61.7266 104.278 61.7266C105.09 61.7266 106.867 59.9541 107.477 60.6988C107.756 61.0394 107.95 61.4463 108.327 61.7266C108.842 62.1082 109.487 61.3303 109.796 61.0871C109.862 61.0357 111.12 60.0223 111.2 60.242C111.37 60.7096 111.298 61.1506 111.599 61.6238C112.338 62.7842 114.337 60.5863 115.322 60.8073C115.743 60.9017 115.481 62.3462 116.391 62.1263C117.234 61.9227 117.812 61.2461 118.638 61.03C119.205 60.8814 119.091 61.4998 119.35 61.7037C120.672 62.7419 122.527 61.1815 123.553 60.5617C123.846 60.3845 124.563 59.8165 124.753 60.2934C124.913 60.6953 125.063 61.2367 125.407 61.5667C126.213 62.3405 127.567 60.5561 128.417 60.7045C128.661 60.7469 128.613 61.0662 128.694 61.207C128.866 61.5083 129.192 61.521 129.559 61.521C130.045 61.521 130.298 61.4666 130.708 61.2698C130.901 61.1769 131.261 61.0369 131.493 61.1327C131.898 61.3003 131.693 61.7266 132.285 61.7266C133.017 61.7266 133.908 61.611 134.605 61.8065C135.101 61.9457 135.314 62.1359 135.935 61.9835C136.482 61.8495 136.384 62.1805 136.866 62.0349C137.9 61.7228 139.239 61.9894 140.32 61.8351C141.169 61.7138 142.147 61.8294 143.01 61.8294" stroke="black" stroke-linecap="square"/>
<path d="M22.0527 80.3869C23.1434 80.1678 24.0732 79.494 24.9829 78.9993C25.396 78.7747 25.5081 78.8044 25.7173 79.1535C26.1246 79.8332 26.2236 81.1063 27.426 81.1063C28.2382 81.1063 30.0156 79.3338 30.6252 80.0785C30.904 80.4191 31.0981 80.8261 31.4759 81.1063C31.9904 81.4879 32.635 80.71 32.9447 80.4668C33.01 80.4155 34.268 79.402 34.348 79.6217C34.5181 80.0894 34.4466 80.5303 34.7479 81.0036C35.4867 82.164 37.4857 79.966 38.4706 80.187C38.8917 80.2815 38.6295 81.7259 39.5394 81.506C40.3822 81.3024 40.9605 80.6258 41.7862 80.4097C42.3536 80.2612 42.239 80.8795 42.4987 81.0835C43.8207 82.1216 45.6755 80.5612 46.7014 79.9415C46.9947 79.7643 47.7113 79.1963 47.9011 79.6731C48.061 80.0751 48.2117 80.6165 48.5555 80.9465C49.3616 81.7202 50.7156 79.9359 51.5656 80.0842C51.809 80.1267 51.7613 80.446 51.8419 80.5867C52.0146 80.888 52.3403 80.9008 52.7072 80.9008C53.1939 80.9008 53.446 80.8463 53.856 80.6495C54.0495 80.5567 54.4093 80.4166 54.6413 80.5125C55.0467 80.6801 54.8417 81.1063 55.4338 81.1063C56.1655 81.1063 57.0561 80.9908 57.7533 81.1863C58.2495 81.3255 58.4629 81.5157 59.0838 81.3633C59.6301 81.2292 59.5326 81.5602 60.0145 81.4147C61.0481 81.1025 62.3876 81.3691 63.4682 81.2148C64.3177 81.0935 65.295 81.2091 66.1585 81.2091" stroke="black" stroke-linecap="square"/>
<path d="M22.0527 99.0984C23.1434 98.8793 24.0732 98.2055 24.9829 97.7109C25.396 97.4863 25.5081 97.5159 25.7173 97.865C26.1246 98.5447 26.2236 99.8179 27.426 99.8179C28.2382 99.8179 30.0156 98.0454 30.6252 98.7901C30.904 99.1307 31.0981 99.5376 31.4759 99.8179C31.9904 100.199 32.635 99.4216 32.9447 99.1784C33.01 99.127 34.268 98.1136 34.348 98.3333C34.5181 98.8009 34.4466 99.2419 34.7479 99.7151C35.4867 100.876 37.4857 98.6776 38.4706 98.8986C38.8917 98.993 38.6295 100.437 39.5394 100.218C40.3822 100.014 40.9605 99.3374 41.7862 99.1213C42.3536 98.9727 42.239 99.5911 42.4987 99.795C43.8207 100.833 45.6755 99.2728 46.7014 98.653C46.9947 98.4758 47.7113 97.9078 47.9011 98.3847C48.061 98.7867 48.2117 99.328 48.5555 99.658C49.3616 100.432 50.7156 98.6474 51.5656 98.7958C51.809 98.8382 51.7613 99.1575 51.8419 99.2983C52.0146 99.5996 52.3403 99.6123 52.7072 99.6123C53.1939 99.6123 53.446 99.5579 53.856 99.3611C54.0495 99.2682 54.4093 99.1282 54.6413 99.224C55.0467 99.3916 54.8417 99.8179 55.4338 99.8179C56.1655 99.8179 57.0561 99.7023 57.7533 99.8978C58.2495 100.037 58.4629 100.227 59.0838 100.075C59.6301 99.9408 59.5326 100.272 60.0145 100.126C61.0481 99.8141 62.3876 100.081 63.4682 99.9264C64.3177 99.8051 65.295 99.9207 66.1585 99.9207" stroke="black" stroke-linecap="square"/>
<rect x="19.3809" y="51.4568" width="63.4856" height="16.7067" fill="#1969E8" fill-opacity="0.5"/>
<path d="M22.0547 59.6706C23.1454 59.4514 24.0751 58.7777 24.9849 58.283C25.398 58.0584 25.51 58.088 25.7193 58.4372C26.1266 59.1169 26.2256 60.39 27.4279 60.39C28.2402 60.39 30.0176 58.6175 30.6272 59.3622C30.906 59.7028 31.1 60.1098 31.4779 60.39C31.9924 60.7716 32.6369 59.9937 32.9466 59.7505C33.012 59.6992 34.27 58.6857 34.3499 58.9054C34.5201 59.3731 34.4485 59.814 34.7498 60.2873C35.4886 61.4477 37.4876 59.2497 38.4726 59.4707C38.8936 59.5652 38.6314 61.0096 39.5414 60.7897C40.3841 60.5861 40.9625 59.9095 41.7881 59.6934C42.3556 59.5449 42.2409 60.1632 42.5007 60.3672C43.8226 61.4053 45.6774 59.8449 46.7033 59.2252C46.9967 59.0479 47.7133 58.48 47.903 58.9568C48.063 59.3588 48.2136 59.9002 48.5574 60.2301C49.3635 61.0039 50.7176 59.2196 51.5676 59.3679C51.8109 59.4104 51.7632 59.7296 51.8439 59.8704C52.0165 60.1717 52.3422 60.1845 52.7091 60.1845C53.1959 60.1845 53.4479 60.13 53.858 59.9332C54.0515 59.8403 54.4113 59.7003 54.6432 59.7962C55.0487 59.9638 54.8436 60.39 55.4358 60.39C56.1674 60.39 57.0581 60.2744 57.7552 60.47C58.2514 60.6091 58.4649 60.7994 59.0858 60.647C59.6321 60.5129 59.5346 60.8439 60.0165 60.6984C61.05 60.3862 62.3896 60.6528 63.4702 60.4985C64.3197 60.3772 65.2969 60.4928 66.1605 60.4928" stroke="black" stroke-linecap="square"/>
<circle cx="75.1819" cy="59.8101" r="5.01202" fill="#A4D9F8"/>
<path d="M74.2783 60.8541H75.3379C75.7253 60.8541 76.0752 60.7988 76.3877 60.6881C76.7002 60.5774 76.9671 60.4228 77.1885 60.2242C77.4066 60.0289 77.5742 59.7962 77.6914 59.526C77.8118 59.2558 77.8721 58.9612 77.8721 58.6422C77.8721 58.3004 77.8118 57.9895 77.6914 57.7096C77.5742 57.4296 77.4066 57.1888 77.1885 56.9869C76.9671 56.7884 76.7002 56.6337 76.3877 56.5231C76.0752 56.4091 75.7253 56.3522 75.3379 56.3522H72.9062V63.4615H74.2783V60.8541ZM74.2783 59.7408V57.4655H75.3379C75.5332 57.4655 75.7025 57.4964 75.8457 57.5582C75.9889 57.6201 76.1094 57.7047 76.207 57.8121C76.3014 57.9196 76.3714 58.0449 76.417 58.1881C76.4658 58.3313 76.4902 58.486 76.4902 58.652C76.4902 58.7952 76.4658 58.9336 76.417 59.067C76.3714 59.1972 76.3014 59.3128 76.207 59.4137C76.1094 59.5146 75.9889 59.5944 75.8457 59.653C75.7025 59.7115 75.5332 59.7408 75.3379 59.7408H74.2783Z" fill="black"/>
<rect x="173.082" y="51.4568" width="63.4856" height="16.7067" fill="#1969E8" fill-opacity="0.5"/>
<path d="M175.756 59.6706C176.847 59.4514 177.776 58.7777 178.686 58.283C179.099 58.0584 179.211 58.088 179.42 58.4372C179.828 59.1169 179.927 60.39 181.129 60.39C181.941 60.39 183.719 58.6175 184.328 59.3622C184.607 59.7028 184.801 60.1098 185.179 60.39C185.694 60.7716 186.338 59.9937 186.648 59.7505C186.713 59.6992 187.971 58.6857 188.051 58.9054C188.221 59.3731 188.15 59.814 188.451 60.2873C189.19 61.4477 191.189 59.2497 192.174 59.4707C192.595 59.5652 192.333 61.0096 193.243 60.7897C194.085 60.5861 194.664 59.9095 195.489 59.6934C196.057 59.5449 195.942 60.1632 196.202 60.3672C197.524 61.4053 199.379 59.8449 200.404 59.2252C200.698 59.0479 201.414 58.48 201.604 58.9568C201.764 59.3588 201.915 59.9002 202.259 60.2301C203.065 61.0039 204.419 59.2196 205.269 59.3679C205.512 59.4104 205.464 59.7296 205.545 59.8704C205.718 60.1717 206.043 60.1845 206.41 60.1845C206.897 60.1845 207.149 60.13 207.559 59.9332C207.753 59.8403 208.112 59.7003 208.344 59.7962C208.75 59.9638 208.545 60.39 209.137 60.39C209.869 60.39 210.759 60.2744 211.456 60.47C211.953 60.6091 212.166 60.7994 212.787 60.647C213.333 60.5129 213.236 60.8439 213.718 60.6984C214.751 60.3862 216.091 60.6528 217.171 60.4985C218.021 60.3772 218.998 60.4928 219.862 60.4928" stroke="black" stroke-linecap="square"/>
<circle cx="228.883" cy="59.8101" r="5.01202" fill="#A4D9F8"/>
<path d="M227.979 60.8541H229.039C229.426 60.8541 229.776 60.7988 230.089 60.6881C230.401 60.5774 230.668 60.4228 230.89 60.2242C231.108 60.0289 231.275 59.7962 231.393 59.526C231.513 59.2558 231.573 58.9612 231.573 58.6422C231.573 58.3004 231.513 57.9895 231.393 57.7096C231.275 57.4296 231.108 57.1888 230.89 56.9869C230.668 56.7884 230.401 56.6337 230.089 56.5231C229.776 56.4091 229.426 56.3522 229.039 56.3522H226.607V63.4615H227.979V60.8541ZM227.979 59.7408V57.4655H229.039C229.234 57.4655 229.404 57.4964 229.547 57.5582C229.69 57.6201 229.811 57.7047 229.908 57.8121C230.003 57.9196 230.073 58.0449 230.118 58.1881C230.167 58.3313 230.191 58.486 230.191 58.652C230.191 58.7952 230.167 58.9336 230.118 59.067C230.073 59.1972 230.003 59.3128 229.908 59.4137C229.811 59.5146 229.69 59.5944 229.547 59.653C229.404 59.7115 229.234 59.7408 229.039 59.7408H227.979Z" fill="black"/>
<rect x="173.082" y="71.5048" width="63.4856" height="16.7067" fill="#1969E8" fill-opacity="0.5"/>
<path d="M175.756 79.7185C176.847 79.4994 177.776 78.8256 178.686 78.331C179.099 78.1064 179.211 78.136 179.42 78.4852C179.828 79.1649 179.927 80.438 181.129 80.438C181.941 80.438 183.719 78.6655 184.328 79.4102C184.607 79.7508 184.801 80.1577 185.179 80.438C185.694 80.8196 186.338 80.0417 186.648 79.7985C186.713 79.7472 187.971 78.7337 188.051 78.9534C188.221 79.4211 188.15 79.862 188.451 80.3352C189.19 81.4956 191.189 79.2977 192.174 79.5187C192.595 79.6132 192.333 81.0576 193.243 80.8377C194.085 80.6341 194.664 79.9575 195.489 79.7414C196.057 79.5928 195.942 80.2112 196.202 80.4152C197.524 81.4533 199.379 79.8929 200.404 79.2732C200.698 79.0959 201.414 78.5279 201.604 79.0048C201.764 79.4068 201.915 79.9481 202.259 80.2781C203.065 81.0519 204.419 79.2676 205.269 79.4159C205.512 79.4584 205.464 79.7776 205.545 79.9184C205.718 80.2197 206.043 80.2324 206.41 80.2324C206.897 80.2324 207.149 80.178 207.559 79.9812C207.753 79.8883 208.112 79.7483 208.344 79.8442C208.75 80.0117 208.545 80.438 209.137 80.438C209.869 80.438 210.759 80.3224 211.456 80.5179C211.953 80.6571 212.166 80.8473 212.787 80.695C213.333 80.5609 213.236 80.8919 213.718 80.7463C214.751 80.4342 216.091 80.7008 217.171 80.5465C218.021 80.4252 218.998 80.5408 219.862 80.5408" stroke="black" stroke-linecap="square"/>
<circle cx="228.883" cy="79.8581" r="5.01202" fill="#A4D9F8"/>
<path d="M227.979 80.9021H229.039C229.426 80.9021 229.776 80.8468 230.089 80.7361C230.401 80.6254 230.668 80.4708 230.89 80.2722C231.108 80.0769 231.275 79.8442 231.393 79.574C231.513 79.3038 231.573 79.0092 231.573 78.6902C231.573 78.3484 231.513 78.0375 231.393 77.7576C231.275 77.4776 231.108 77.2367 230.89 77.0349C230.668 76.8363 230.401 76.6817 230.089 76.571C229.776 76.4571 229.426 76.4001 229.039 76.4001H226.607V83.5095H227.979V80.9021ZM227.979 79.7888V77.5134H229.039C229.234 77.5134 229.404 77.5444 229.547 77.6062C229.69 77.6681 229.811 77.7527 229.908 77.8601C230.003 77.9675 230.073 78.0929 230.118 78.2361C230.167 78.3793 230.191 78.5339 230.191 78.7C230.191 78.8432 230.167 78.9815 230.118 79.115C230.073 79.2452 230.003 79.3608 229.908 79.4617C229.811 79.5626 229.69 79.6423 229.547 79.7009C229.404 79.7595 229.234 79.7888 229.039 79.7888H227.979Z" fill="black"/>
<rect x="173.082" y="90.8845" width="63.4856" height="16.7067" fill="#1969E8" fill-opacity="0.5"/>
<path d="M175.756 99.0984C176.847 98.8793 177.776 98.2055 178.686 97.7109C179.099 97.4863 179.211 97.5159 179.42 97.865C179.828 98.5447 179.927 99.8179 181.129 99.8179C181.941 99.8179 183.719 98.0454 184.328 98.7901C184.607 99.1307 184.801 99.5376 185.179 99.8179C185.694 100.199 186.338 99.4216 186.648 99.1784C186.713 99.127 187.971 98.1136 188.051 98.3333C188.221 98.8009 188.15 99.2419 188.451 99.7151C189.19 100.876 191.189 98.6776 192.174 98.8986C192.595 98.993 192.333 100.437 193.243 100.218C194.085 100.014 194.664 99.3374 195.489 99.1213C196.057 98.9727 195.942 99.5911 196.202 99.795C197.524 100.833 199.379 99.2728 200.404 98.653C200.698 98.4758 201.414 97.9078 201.604 98.3847C201.764 98.7867 201.915 99.328 202.259 99.658C203.065 100.432 204.419 98.6474 205.269 98.7958C205.512 98.8382 205.464 99.1575 205.545 99.2983C205.718 99.5996 206.043 99.6123 206.41 99.6123C206.897 99.6123 207.149 99.5579 207.559 99.3611C207.753 99.2682 208.112 99.1282 208.344 99.224C208.75 99.3916 208.545 99.8179 209.137 99.8179C209.869 99.8179 210.759 99.7023 211.456 99.8978C211.953 100.037 212.166 100.227 212.787 100.075C213.333 99.9408 213.236 100.272 213.718 100.126C214.751 99.8141 216.091 100.081 217.171 99.9264C218.021 99.8051 218.998 99.9207 219.862 99.9207" stroke="black" stroke-linecap="square"/>
<circle cx="228.883" cy="99.238" r="5.01202" fill="#A4D9F8"/>
<path d="M227.979 100.282H229.039C229.426 100.282 229.776 100.227 230.089 100.116C230.401 100.005 230.668 99.8507 230.89 99.6521C231.108 99.4568 231.275 99.224 231.393 98.9539C231.513 98.6837 231.573 98.3891 231.573 98.0701C231.573 97.7283 231.513 97.4174 231.393 97.1375C231.275 96.8575 231.108 96.6166 230.89 96.4148C230.668 96.2162 230.401 96.0616 230.089 95.9509C229.776 95.837 229.426 95.78 229.039 95.78H226.607V102.889H227.979V100.282ZM227.979 99.1687V96.8933H229.039C229.234 96.8933 229.404 96.9242 229.547 96.9861C229.69 97.0479 229.811 97.1326 229.908 97.24C230.003 97.3474 230.073 97.4727 230.118 97.616C230.167 97.7592 230.191 97.9138 230.191 98.0798C230.191 98.2231 230.167 98.3614 230.118 98.4949C230.073 98.6251 230.003 98.7406 229.908 98.8416C229.811 98.9425 229.69 99.0222 229.547 99.0808C229.404 99.1394 229.234 99.1687 229.039 99.1687H227.979Z" fill="black"/>
<circle cx="75.18" cy="79.8581" r="5.01202" fill="#A6F8A4"/>
<path d="M74.2764 80.9021H75.3359C75.7233 80.9021 76.0732 80.8468 76.3857 80.7361C76.6982 80.6254 76.9652 80.4708 77.1865 80.2722C77.4046 80.0769 77.5723 79.8442 77.6895 79.574C77.8099 79.3038 77.8701 79.0092 77.8701 78.6902C77.8701 78.3484 77.8099 78.0375 77.6895 77.7576C77.5723 77.4776 77.4046 77.2367 77.1865 77.0349C76.9652 76.8363 76.6982 76.6817 76.3857 76.571C76.0732 76.4571 75.7233 76.4001 75.3359 76.4001H72.9043V83.5095H74.2764V80.9021ZM74.2764 79.7888V77.5134H75.3359C75.5312 77.5134 75.7005 77.5444 75.8438 77.6062C75.987 77.6681 76.1074 77.7527 76.2051 77.8601C76.2995 77.9675 76.3695 78.0929 76.415 78.2361C76.4639 78.3793 76.4883 78.5339 76.4883 78.7C76.4883 78.8432 76.4639 78.9815 76.415 79.115C76.3695 79.2452 76.2995 79.3608 76.2051 79.4617C76.1074 79.5626 75.987 79.6423 75.8438 79.7009C75.7005 79.7595 75.5312 79.7888 75.3359 79.7888H74.2764Z" fill="black"/>
<circle cx="152.032" cy="61.1467" r="5.01202" fill="#A6F8A4"/>
<path d="M151.128 62.1907H152.188C152.575 62.1907 152.925 62.1353 153.237 62.0247C153.55 61.914 153.817 61.7594 154.038 61.5608C154.256 61.3655 154.424 61.1327 154.541 60.8625C154.661 60.5924 154.722 60.2978 154.722 59.9788C154.722 59.637 154.661 59.3261 154.541 59.0461C154.424 58.7662 154.256 58.5253 154.038 58.3235C153.817 58.1249 153.55 57.9703 153.237 57.8596C152.925 57.7457 152.575 57.6887 152.188 57.6887H149.756V64.7981H151.128V62.1907ZM151.128 61.0774V58.802H152.188C152.383 58.802 152.552 58.8329 152.695 58.8948C152.839 58.9566 152.959 59.0413 153.057 59.1487C153.151 59.2561 153.221 59.3814 153.267 59.5247C153.315 59.6679 153.34 59.8225 153.34 59.9885C153.34 60.1318 153.315 60.2701 153.267 60.4036C153.221 60.5338 153.151 60.6493 153.057 60.7502C152.959 60.8512 152.839 60.9309 152.695 60.9895C152.552 61.0481 152.383 61.0774 152.188 61.0774H151.128Z" fill="black"/>
<circle cx="74.512" cy="99.9063" r="5.01202" fill="#E4C5EC"/>
<path d="M73.6084 100.95H74.668C75.0553 100.95 75.4053 100.895 75.7178 100.784C76.0303 100.674 76.2972 100.519 76.5186 100.32C76.7367 100.125 76.9043 99.8924 77.0215 99.6222C77.1419 99.352 77.2021 99.0574 77.2021 98.7384C77.2021 98.3966 77.1419 98.0857 77.0215 97.8058C76.9043 97.5258 76.7367 97.285 76.5186 97.0831C76.2972 96.8846 76.0303 96.7299 75.7178 96.6193C75.4053 96.5053 75.0553 96.4484 74.668 96.4484H72.2363V103.558H73.6084V100.95ZM73.6084 99.837V97.5616H74.668C74.8633 97.5616 75.0326 97.5926 75.1758 97.6544C75.319 97.7163 75.4395 97.8009 75.5371 97.9083C75.6315 98.0157 75.7015 98.1411 75.7471 98.2843C75.7959 98.4275 75.8203 98.5822 75.8203 98.7482C75.8203 98.8914 75.7959 99.0297 75.7471 99.1632C75.7015 99.2934 75.6315 99.409 75.5371 99.5099C75.4395 99.6108 75.319 99.6906 75.1758 99.7491C75.0326 99.8077 74.8633 99.837 74.668 99.837H73.6084Z" fill="black"/>
</svg>
