<svg width="174" height="47" viewBox="0 0 174 47" fill="none" xmlns="http://www.w3.org/2000/svg">
<rect x="0.5" y="0.5" width="173" height="46" rx="23" stroke="#393E46"/>
<path d="M147.061 9.93934C146.475 9.35355 145.525 9.35355 144.939 9.93934L135.393 19.4853C134.808 20.0711 134.808 21.0208 135.393 21.6066C135.979 22.1924 136.929 22.1924 137.515 21.6066L146 13.1213L154.485 21.6066C155.071 22.1924 156.021 22.1924 156.607 21.6066C157.192 21.0208 157.192 20.0711 156.607 19.4853L147.061 9.93934ZM147.5 36V11H144.5V36H147.5Z" fill="#393E46"/>
<path d="M42.7969 33V15.9375H39.5391V22.9336H34.7109V15.9375H31.4414V33H34.7109V25.6055H39.5391V33H42.7969ZM53.9883 33H57.293V32.8008C57.1289 32.4805 57.0039 32.0977 56.918 31.6523C56.832 31.207 56.7891 30.6445 56.7891 29.9648V24.5273C56.7891 23.793 56.6523 23.1484 56.3789 22.5938C56.1055 22.0312 55.7266 21.5664 55.2422 21.1992C54.7578 20.832 54.1836 20.5547 53.5195 20.3672C52.8633 20.1797 52.1523 20.0859 51.3867 20.0859C50.5352 20.0859 49.7773 20.1953 49.1133 20.4141C48.457 20.625 47.9023 20.9141 47.4492 21.2812C46.9883 21.6484 46.6367 22.0742 46.3945 22.5586C46.1602 23.043 46.043 23.5547 46.043 24.0938H49.3008C49.3008 23.8672 49.332 23.6602 49.3945 23.4727C49.4648 23.2852 49.5703 23.125 49.7109 22.9922C49.8672 22.8438 50.0703 22.7305 50.3203 22.6523C50.5703 22.5664 50.8672 22.5234 51.2109 22.5234C51.6016 22.5234 51.9414 22.5742 52.2305 22.6758C52.5273 22.7695 52.7734 22.9062 52.9688 23.0859C53.1562 23.2578 53.2969 23.4648 53.3906 23.707C53.4844 23.9414 53.5312 24.207 53.5312 24.5039V25.2539H51.7148C50.7773 25.2539 49.9453 25.3398 49.2188 25.5117C48.5 25.6758 47.8945 25.918 47.4023 26.2383C46.8555 26.5898 46.4453 27.0391 46.1719 27.5859C45.8984 28.125 45.7617 28.7461 45.7617 29.4492C45.7617 29.9961 45.8711 30.5039 46.0898 30.9727C46.3086 31.4336 46.6133 31.832 47.0039 32.168C47.3945 32.5039 47.8594 32.7656 48.3984 32.9531C48.9453 33.1406 49.543 33.2344 50.1914 33.2344C50.5898 33.2344 50.9609 33.1953 51.3047 33.1172C51.6484 33.0469 51.9648 32.9453 52.2539 32.8125C52.5352 32.6875 52.793 32.5391 53.0273 32.3672C53.2617 32.1953 53.4688 32.0117 53.6484 31.8164C53.6875 32.043 53.7344 32.2578 53.7891 32.4609C53.8438 32.6641 53.9102 32.8438 53.9883 33ZM50.8828 30.7148C50.5781 30.7148 50.3086 30.6797 50.0742 30.6094C49.8477 30.5312 49.6562 30.4297 49.5 30.3047C49.3438 30.1719 49.2227 30.0117 49.1367 29.8242C49.0586 29.6289 49.0195 29.418 49.0195 29.1914C49.0195 28.9023 49.0742 28.6367 49.1836 28.3945C49.293 28.1445 49.4609 27.9297 49.6875 27.75C49.9141 27.5781 50.207 27.4453 50.5664 27.3516C50.9258 27.25 51.3594 27.1992 51.8672 27.1992H53.5312V29.3789C53.4375 29.543 53.3086 29.707 53.1445 29.8711C52.9805 30.0273 52.7852 30.168 52.5586 30.293C52.332 30.418 52.0781 30.5195 51.7969 30.5977C51.5156 30.6758 51.2109 30.7148 50.8828 30.7148ZM60.4453 33H66.5273C67.3477 33 68.0742 32.9258 68.707 32.7773C69.3477 32.6211 69.8867 32.3906 70.3242 32.0859C70.7617 31.7891 71.0938 31.4141 71.3203 30.9609C71.5547 30.5078 71.6719 29.9805 71.6719 29.3789C71.6719 29.043 71.6133 28.7227 71.4961 28.418C71.3789 28.1133 71.2031 27.8359 70.9688 27.5859C70.7344 27.3516 70.4492 27.1445 70.1133 26.9648C69.7773 26.7773 69.3867 26.6328 68.9414 26.5312L68.8008 26.5078C69.1211 26.3984 69.4062 26.2695 69.6562 26.1211C69.9141 25.9648 70.1328 25.7969 70.3125 25.6172C70.5547 25.375 70.7383 25.1055 70.8633 24.8086C70.9883 24.5117 71.0508 24.1953 71.0508 23.8594C71.0508 23.2656 70.9258 22.7461 70.6758 22.3008C70.4336 21.8555 70.082 21.4844 69.6211 21.1875C69.1523 20.8984 68.5859 20.6836 67.9219 20.543C67.2656 20.3945 66.5273 20.3203 65.707 20.3203H60.4453V33ZM63.7031 27.7148H66.5273C66.8789 27.7148 67.1758 27.75 67.418 27.8203C67.668 27.8906 67.8672 27.9922 68.0156 28.125C68.1562 28.2422 68.2578 28.3828 68.3203 28.5469C68.3828 28.7031 68.4141 28.8789 68.4141 29.0742C68.4141 29.293 68.3789 29.4844 68.3086 29.6484C68.2383 29.8125 68.125 29.9531 67.9688 30.0703C67.8203 30.1797 67.625 30.2656 67.3828 30.3281C67.1406 30.3828 66.8555 30.4102 66.5273 30.4102H63.7031V27.7148ZM63.7031 25.5V22.9336H65.707C66.0898 22.9336 66.418 22.9648 66.6914 23.0273C66.9727 23.0898 67.1953 23.1836 67.3594 23.3086C67.5078 23.418 67.6172 23.5547 67.6875 23.7188C67.7578 23.875 67.793 24.0625 67.793 24.2812C67.793 24.4766 67.7539 24.6484 67.6758 24.7969C67.6055 24.9453 67.4922 25.0703 67.3359 25.1719C67.1797 25.2734 66.9805 25.3516 66.7383 25.4062C66.4961 25.4609 66.2109 25.4922 65.8828 25.5H63.7031ZM81.0469 33.2344C82.2734 33.2344 83.3359 32.9961 84.2344 32.5195C85.1328 32.043 85.7891 31.5117 86.2031 30.9258L84.5742 29.168C84.1992 29.6523 83.7109 30.0156 83.1094 30.2578C82.5078 30.5 81.8867 30.6211 81.2461 30.6211C80.793 30.6211 80.375 30.5508 79.9922 30.4102C79.6094 30.2695 79.2695 30.0703 78.9727 29.8125C78.6836 29.5625 78.4531 29.2852 78.2812 28.9805C78.1094 28.668 77.9688 28.2578 77.8594 27.75V27.7148H86.4609V26.332C86.4609 25.4023 86.332 24.5547 86.0742 23.7891C85.8164 23.0156 85.4414 22.3555 84.9492 21.8086C84.4492 21.2617 83.8398 20.8398 83.1211 20.543C82.4102 20.2383 81.5977 20.0859 80.6836 20.0859C79.8008 20.0859 78.9844 20.2461 78.2344 20.5664C77.4844 20.8867 76.8359 21.3359 76.2891 21.9141C75.7422 22.4922 75.3164 23.1836 75.0117 23.9883C74.707 24.7852 74.5547 25.668 74.5547 26.6367V27.1055C74.5547 27.957 74.707 28.7578 75.0117 29.5078C75.3242 30.25 75.7656 30.8945 76.3359 31.4414C76.9062 31.9961 77.5898 32.4336 78.3867 32.7539C79.1836 33.0742 80.0703 33.2344 81.0469 33.2344ZM80.6602 22.7227C81.0742 22.7227 81.4375 22.7891 81.75 22.9219C82.0703 23.0469 82.3398 23.2188 82.5586 23.4375C82.7773 23.6641 82.9492 23.9297 83.0742 24.2344C83.1992 24.5391 83.2617 24.8633 83.2617 25.207V25.4648H77.918C77.9961 25.0508 78.1133 24.6758 78.2695 24.3398C78.4258 24.0039 78.6211 23.7148 78.8555 23.4727C79.082 23.2305 79.3477 23.0469 79.6523 22.9219C79.957 22.7891 80.293 22.7227 80.6602 22.7227ZM89.3555 37.875H92.6133V31.8984C92.7617 32.0625 92.918 32.2109 93.082 32.3438C93.2461 32.4766 93.418 32.5977 93.5977 32.707C93.9023 32.8789 94.2305 33.0078 94.582 33.0938C94.9414 33.1875 95.332 33.2344 95.7539 33.2344C96.5508 33.2344 97.2578 33.0703 97.875 32.7422C98.4922 32.4141 99.0117 31.9609 99.4336 31.3828C99.8477 30.8125 100.16 30.1328 100.371 29.3438C100.59 28.5547 100.699 27.6992 100.699 26.7773V26.5312C100.699 25.5703 100.59 24.6953 100.371 23.9062C100.16 23.1094 99.8438 22.4258 99.4219 21.8555C99 21.293 98.4805 20.8594 97.8633 20.5547C97.2461 20.2422 96.5352 20.0859 95.7305 20.0859C95.3398 20.0859 94.9727 20.1289 94.6289 20.2148C94.293 20.293 93.9844 20.4062 93.7031 20.5547C93.4688 20.6797 93.25 20.8281 93.0469 21C92.8438 21.1641 92.6562 21.3516 92.4844 21.5625L92.3672 20.3203H89.3555V37.875ZM97.4414 26.5312V26.7773C97.4414 27.3008 97.3945 27.7969 97.3008 28.2656C97.207 28.7266 97.0586 29.1328 96.8555 29.4844C96.6523 29.8359 96.3867 30.1133 96.0586 30.3164C95.7383 30.5195 95.3477 30.6211 94.8867 30.6211C94.5977 30.6211 94.3359 30.5938 94.1016 30.5391C93.8672 30.4766 93.6602 30.3906 93.4805 30.2812C93.293 30.1641 93.125 30.0234 92.9766 29.8594C92.8359 29.6953 92.7148 29.5117 92.6133 29.3086V24.0117C92.7227 23.793 92.8516 23.6016 93 23.4375C93.1562 23.2734 93.3359 23.1367 93.5391 23.0273C93.7188 22.9336 93.918 22.8633 94.1367 22.8164C94.3555 22.7617 94.5977 22.7344 94.8633 22.7344C95.3242 22.7344 95.7148 22.832 96.0352 23.0273C96.3633 23.2227 96.6328 23.4883 96.8438 23.8242C97.0469 24.168 97.1953 24.5742 97.2891 25.043C97.3906 25.5039 97.4414 26 97.4414 26.5312ZM109.523 24.2812L106.781 20.3203H103.277L107.52 26.543L103.113 33H106.641L109.535 28.8516L112.453 33H115.969L111.562 26.543L115.816 20.3203H112.312L109.523 24.2812Z" fill="#393E46"/>
</svg>
